<svg width="27" height="17" viewBox="0 0 27 17" fill="none" xmlns="http://www.w3.org/2000/svg">
<path fill-rule="evenodd" clip-rule="evenodd" d="M6.43357 16.4869C3.1964 15.4235 0.843124 12.163 0.913567 8.74635C0.753213 4.52441 4.45162 0.622814 8.67781 0.572548C10.8318 0.388831 12.927 1.22529 14.5575 2.58954C13.8891 3.32441 13.2088 4.05149 12.4817 4.73184C11.0467 3.85998 9.31888 3.19556 7.64171 3.78565C4.93693 4.55556 3.2987 7.74954 4.29941 10.3963C5.12843 13.1602 8.4902 14.677 11.1249 13.5159C12.4895 13.0274 13.3886 11.7687 13.7833 10.4161C13.0814 10.4019 12.3794 10.3981 11.6774 10.3943C10.8157 10.3897 9.95397 10.385 9.09233 10.3612L9.09184 10.2454C9.0881 9.35399 9.08436 8.4656 9.08843 7.57396C9.3777 7.57353 9.66701 7.57305 9.95636 7.57257C12.2753 7.56873 14.5969 7.56487 16.9185 7.58565C17.0789 9.86458 16.7422 12.3039 15.2608 14.1336C13.2318 16.7449 9.48277 17.5113 6.43357 16.4869ZM21.999 5.39167L22.0006 5.22777C22.7745 5.22777 23.5486 5.22777 24.3263 5.22812C24.3284 5.61681 24.3314 6.00656 24.3343 6.39635C24.3372 6.78647 24.3401 7.17663 24.3422 7.56582C25.1162 7.57357 25.894 7.57746 26.6676 7.58134L26.6799 7.5814V9.91131L24.3422 9.92299C24.3352 10.6032 24.3316 11.2802 24.3279 11.9596C24.3274 12.0612 24.3269 12.1628 24.3263 12.2646C23.8076 12.262 23.2887 12.2629 22.7709 12.2637C22.5124 12.2642 22.2542 12.2646 21.9964 12.2646C21.9925 11.8741 21.9906 11.4847 21.9886 11.0957C21.9867 10.7058 21.9847 10.3164 21.9808 9.92688C21.2067 9.91878 20.4283 9.91489 19.6537 9.91101L19.6431 9.91096V7.58104C20.4212 7.57715 21.1989 7.57326 21.9808 7.56547C21.9844 6.84236 21.9917 6.11558 21.999 5.39167Z" fill="#CDCED6"/>
</svg>