<svg width="134" height="32" viewBox="0 0 134 32" fill="none" xmlns="http://www.w3.org/2000/svg">
<path d="M123.064 22.1798C117.1 22.1798 112.248 17.3344 112.248 11.3787V0.577637H133.88V11.3787C133.88 17.3337 129.027 22.1798 123.064 22.1798ZM114.215 2.54146V11.3787C114.215 16.2509 118.184 20.2159 123.064 20.2159C127.943 20.2159 131.913 16.2516 131.913 11.3787V2.54146H114.215Z" fill="#FFDF70"/>
<path d="M127.981 7.12354H118.148V9.08737H119.492L118.811 14.5291H120.793L121.475 9.08737H124.654L125.336 14.5291H127.317L126.637 9.08737H127.981V7.12354Z" fill="#FFDF70"/>
<path d="M11.603 3.82292C17.4049 3.82292 20.4995 6.52647 20.4995 10.3887C20.4995 13.4791 18.1784 15.7964 15.0843 16.6467V16.724C19.9193 17.9213 21.6596 20.7407 21.6596 23.7152C21.6596 27.9637 18.5651 30.8609 12.7639 30.8609H0V30.0886C2.32112 30.0886 2.32112 30.0886 2.32112 27.5774V7.1058C2.32112 4.59471 2.32112 4.59471 0 4.59471V3.82227H11.603V3.82292ZM9.28254 16.5688C12.7639 16.5688 14.1168 14.2516 14.1168 10.5817C14.1168 7.29825 12.7632 4.59471 10.4428 4.59471H8.50905V16.5688H9.28254ZM8.50905 17.3413V30.0886H11.2163C14.3102 30.0886 15.2777 26.9981 15.2777 23.5222C15.2777 20.0462 13.5374 17.342 10.056 17.342H8.50905V17.3413Z" fill="#FFDF70"/>
<path d="M23.204 21.3977C23.204 14.8313 28.6192 11.1616 33.4535 11.1616C37.9017 11.1616 41.9238 13.0927 40.7636 19.6591H29.3153C29.3153 24.8737 32.2932 26.8048 35.1944 26.8048C38.6758 26.8048 40.2228 24.8737 40.9963 23.5213H41.383C40.6096 27.3835 37.9017 31.2464 33.0674 31.2464C26.6854 31.247 23.204 26.6124 23.204 21.3977ZM29.3153 18.8866H35.0011C35.6586 16.2604 36.2 11.934 33.2607 11.934C31.0557 11.934 29.47 13.9816 29.3153 18.8866Z" fill="#FFDF70"/>
<path d="M57.2389 16.5692C57.2389 14.8312 56.0786 14.252 54.9184 14.252C53.7195 14.252 52.4046 14.8312 51.051 15.9899V27.5771C51.051 30.0883 51.051 30.0883 53.3714 30.0883V30.8607H42.5413V30.0883C44.8617 30.0883 44.8617 30.0883 44.8617 27.5771V15.4105C44.8617 13.4795 44.8617 13.4795 42.928 13.4795V12.9001L50.857 11.1621H51.1663L51.0503 15.2175H51.1277C52.5973 12.707 55.3825 11.1621 58.2057 11.1621C60.797 11.1621 63.4274 12.707 63.4274 16.9561V27.5785C63.4274 30.0895 63.4274 30.0895 65.7479 30.0895V30.862H55.6919V30.0895C57.2389 30.0895 57.2389 30.0895 57.2389 27.5785V16.5692Z" fill="#FFDF70"/>
<path d="M78.5092 26.8055C81.9906 26.8055 83.5375 24.8744 84.311 23.522H84.6984C83.9243 27.3842 81.2171 31.247 76.3821 31.247C70.0001 31.247 66.5194 26.6124 66.5194 21.3977C66.5194 14.8313 71.9346 11.1616 76.7689 11.1616C81.6039 11.1616 84.1569 13.5182 84.1569 15.9899C84.1569 17.3411 83.5382 18.6935 81.2177 18.6935C79.284 18.6935 78.8579 17.4963 78.8966 16.6852C79.0907 13.8651 78.8966 11.934 76.5761 11.934C73.869 11.934 72.6307 15.5265 72.6307 20.0067C72.6307 25.0675 75.6086 26.8055 78.5092 26.8055Z" fill="#FFDF70"/>
<path d="M100.554 16.5687C100.554 14.8307 99.394 14.2514 98.2337 14.2514C97.0346 14.2514 95.7197 14.8307 94.3661 15.9894V27.5767C94.3661 30.0878 94.3661 30.0878 96.6872 30.0878V30.8602H85.857V30.0878C88.1781 30.0878 88.1781 30.0878 88.1781 27.5767V5.36773C88.1781 3.43598 88.1781 3.43598 86.2444 3.43598V2.85664L94.0573 1.11865H94.3667V15.217H94.4441C95.9137 12.7065 98.6978 11.1617 101.522 11.1617C104.114 11.1617 106.744 12.7065 106.744 16.9556V27.578C106.744 30.0891 106.744 30.0891 109.065 30.0891V30.8616H99.0075V30.0891C100.554 30.0891 100.554 30.0891 100.554 27.578V16.5687Z" fill="#FFDF70"/>
</svg>