<svg width="71" height="32" viewBox="0 0 71 32" fill="none" xmlns="http://www.w3.org/2000/svg">
<g clip-path="url(#clip0)">
<path fill-rule="evenodd" clip-rule="evenodd" d="M12.3994 13.8849C12.1701 13.6806 11.8498 13.6122 11.5566 13.7048L3.58001 16.2218L14.9777 5.31928C15.3287 4.98283 15.3405 4.42522 15.0044 4.07392C14.988 4.0571 14.9718 4.04077 14.954 4.02543L10.699 0.223551C10.3357 -0.100529 9.77911 -0.0683683 9.4553 0.294799C9.41821 0.336856 9.3851 0.381881 9.35646 0.429874L0.0951644 15.9822C-0.070922 16.2613 -0.0160541 16.6195 0.226649 16.8358L2.03135 18.4507C2.25329 18.6486 2.56026 18.7204 2.84696 18.6407L9.309 16.8397L1.8712 28.5269C1.51233 29.0914 2.25676 29.703 2.73969 29.2398L15.1651 17.3286C15.4345 17.0688 15.4424 16.6394 15.1824 16.3697C15.171 16.3578 15.1591 16.3464 15.1467 16.335L12.3994 13.8849Z" fill="#FFDF70"/>
<path fill-rule="evenodd" clip-rule="evenodd" d="M70.4085 12.2182L69.1745 11.1178C69.007 10.9683 68.7501 10.9828 68.6004 11.1502C68.567 11.1882 68.5401 11.232 68.5227 11.2799L65.985 18.1254C64.7695 21.4049 63.3286 22.5276 62.4249 22.5276C62.1361 22.5276 61.7251 22.3177 61.7251 21.6182C61.7251 21.3805 61.767 20.8779 62.0613 20.0838L64.4787 13.5667C64.6553 13.0911 64.5221 12.5562 64.1435 12.2186L62.9091 11.1178C62.7416 10.9683 62.4847 10.9828 62.335 11.1502C62.3016 11.1882 62.2747 11.232 62.2573 11.2799L59.7201 18.1254C58.5051 21.4049 57.0637 22.5276 56.1609 22.5276C55.8717 22.5276 55.4606 22.3177 55.4606 21.6182C55.4606 21.3805 55.5031 20.8779 55.7963 20.0838L61.0757 5.83329C61.2523 5.35817 61.1191 4.82323 60.7411 4.48522L59.5061 3.38443C59.339 3.23487 59.0821 3.24982 58.9325 3.41683C58.8986 3.45472 58.8722 3.4991 58.8542 3.54646L53.4512 18.1254C53.0671 19.1609 52.8876 20.2138 52.8876 20.827C52.8876 22.901 54.2876 24.0915 55.7959 24.0915C56.9265 24.0915 58.1749 23.3682 59.3056 21.879C59.6926 23.2914 60.8353 24.0915 62.0608 24.0915C62.7436 24.0915 63.4707 23.8248 64.1894 23.2898L62.4123 28.0809C60.575 27.2104 58.4777 27.0609 56.5355 27.6631C56.2986 27.7354 56.3475 28.0809 56.5919 28.1048C59.1201 28.3426 61.2004 29.4354 62.7361 31.489C63.0119 31.8549 63.5321 31.9282 63.8977 31.6525C64.0244 31.5573 64.1211 31.4282 64.1759 31.2796L70.7422 13.5687C70.9197 13.0926 70.7875 12.5566 70.4085 12.2182Z" fill="#FFDF70"/>
<path fill-rule="evenodd" clip-rule="evenodd" d="M43.9253 22.5171C43.4302 22.5171 43.0611 22.0304 43.0611 21.3055C43.0611 21.0632 43.1366 20.486 43.4332 19.6773C45.13 15.2511 47.4386 12.8487 48.474 12.8487C49.1579 12.8487 49.2622 13.5604 49.2622 14.4083C49.2622 17.8632 46.1805 22.5145 43.9253 22.5145V22.5171ZM49.4183 10.7832C48.197 10.7832 47.0613 11.4847 46.046 12.5556L48.6382 5.50446C48.8165 5.01983 48.682 4.47473 48.3002 4.13081L47.0508 3.00863C46.8821 2.85623 46.6222 2.87096 46.4716 3.04165C46.4373 3.08026 46.4107 3.12496 46.3926 3.17373L40.9368 18.0288C40.549 19.0844 40.3682 20.1568 40.3682 20.7817C40.3682 22.7934 41.7769 24.1081 43.6916 24.1081C48.2096 24.1081 52.2865 18.7512 52.2865 14.4306C52.2839 12.3148 51.2651 10.7832 49.4183 10.7832Z" fill="#FFDF70"/>
<path fill-rule="evenodd" clip-rule="evenodd" d="M32.3823 22.5171C31.8866 22.5171 31.517 22.0304 31.517 21.3055C31.517 21.0632 31.5926 20.486 31.8896 19.6773C33.5885 15.2511 35.9001 12.8487 36.9368 12.8487C37.6222 12.8487 37.7265 13.5604 37.7265 14.4083C37.7256 17.8632 34.6429 22.5145 32.3817 22.5145L32.3823 22.5171ZM34.5062 12.5556L37.1012 5.50446C37.2798 5.01983 37.1456 4.47473 36.7629 4.13081L35.5123 3.00863C35.3428 2.85623 35.0832 2.87096 34.9318 3.04165C34.8976 3.08026 34.8709 3.12496 34.8532 3.17373L29.3899 18.0288C28.1596 21.37 26.7037 22.5145 25.79 22.5145C25.4975 22.5145 25.0825 22.3012 25.0825 21.5879C25.0825 21.3456 25.1248 20.8336 25.4223 20.0243L27.8645 13.3836C28.0436 12.8995 27.9089 12.3539 27.5267 12.0095L26.2781 10.8878C26.1092 10.7359 25.8489 10.7506 25.6982 10.9208C25.6639 10.96 25.6371 11.0041 25.619 11.0534L23.0533 18.0288C21.8248 21.3705 20.3675 22.5145 19.4543 22.5145C19.1618 22.5145 18.7463 22.3012 18.7463 21.5879C18.7463 21.3456 18.7887 20.8336 19.0857 20.0243L21.5278 13.3836C21.7064 12.8995 21.5717 12.3544 21.1885 12.01L19.9409 10.8883C19.772 10.7364 19.5123 10.7512 19.361 10.9213C19.3267 10.96 19.2999 11.0052 19.2818 11.0539L16.7171 18.0288C16.3294 19.0844 16.1473 20.1568 16.1473 20.7817C16.1473 22.8956 17.5623 24.1081 19.0872 24.1081C20.2304 24.1081 21.4926 23.371 22.6358 21.8541C23.027 23.2933 24.1824 24.1081 25.4208 24.1081C26.5676 24.1081 27.8357 23.3669 28.9784 21.8409C29.3879 23.2364 30.5931 24.1081 32.1438 24.1081C36.6685 24.1081 40.7526 18.7512 40.7526 14.4306C40.7517 12.3148 39.7315 10.7832 37.8829 10.7832C36.6595 10.7832 35.5224 11.4847 34.5062 12.5556Z" fill="#FFDF70"/>
</g>
<defs>
<clipPath id="clip0">
<rect width="71" height="32" fill="white"/>
</clipPath>
</defs>
</svg>
