<svg width="150" height="32" viewBox="0 0 150 32" fill="none" xmlns="http://www.w3.org/2000/svg">
<g clip-path="url(#clip0)">
<path d="M20.9166 17.8219C20.8655 17.8825 20.8166 17.9456 20.7624 18.0026L20.7614 18.0145L15.664 23.7165L15.6555 23.7141C15.3173 24.095 14.9148 24.3972 14.4715 24.6032C14.0283 24.8093 13.5529 24.9152 13.0728 24.9147H8.05521C7.95575 24.9145 7.85723 24.9363 7.76529 24.9787C7.67336 25.0212 7.58981 25.0835 7.51943 25.1621C7.44904 25.2407 7.39321 25.3341 7.35512 25.4369C7.31702 25.5396 7.29741 25.6497 7.29741 25.7609V30.7723L7.28147 30.7735C7.25429 30.958 7.18217 31.1305 7.07305 31.2722C6.96392 31.4139 6.822 31.5192 6.66287 31.5765C6.50374 31.6339 6.33355 31.6411 6.171 31.5973C6.00845 31.5536 5.85982 31.4606 5.74142 31.3286L5.73824 31.331L1.11492 26.1628L1.11916 26.1544C0.76516 25.7748 0.483511 25.3189 0.291174 24.8144C0.098837 24.3098 -0.000208383 23.7669 3.29168e-07 23.2184V10.2871C3.29168e-07 9.19112 0.387935 8.19859 1.01713 7.46519L1.01501 7.45806L6.2569 1.59561L6.25902 1.5968C6.9393 0.850197 7.85457 0.432295 8.80769 0.433107H13.0728C13.6171 0.433107 14.1314 0.569802 14.5938 0.808722V0.799212C14.9892 1.00485 15.3484 1.28181 15.6502 1.62176L15.6566 1.61819L21.8784 8.57658L21.8795 16.7391H29.1599V29.422C29.162 29.4292 29.162 29.4374 29.162 29.4458V29.7322C29.13 30.247 28.9246 30.7291 28.5873 31.0811C28.25 31.4332 27.8059 31.6291 27.3446 31.6293H23.6958C23.4438 31.6292 23.1946 31.5706 22.9638 31.4572C22.7331 31.3439 22.5258 31.1782 22.3551 30.9709C22.1845 30.7635 22.0541 30.5188 21.9722 30.2522C21.8904 29.9856 21.8587 29.7029 21.8795 29.422V16.7391L20.9166 17.8219ZM13.836 16.7486C13.9354 16.7488 14.0339 16.7269 14.1258 16.6845C14.2178 16.642 14.3013 16.5797 14.3717 16.5011C14.4421 16.4226 14.498 16.3292 14.536 16.2264C14.5742 16.1237 14.5938 16.0135 14.5938 15.9022V9.44312C14.5938 9.33187 14.5742 9.22172 14.536 9.11897C14.498 9.01621 14.4421 8.92285 14.3717 8.84425C14.3013 8.76565 14.2178 8.70333 14.1258 8.66087C14.0339 8.61841 13.9354 8.59664 13.836 8.59679V8.5956H8.05415C7.85335 8.5956 7.66076 8.68472 7.51868 8.84341C7.37659 9.0021 7.29663 9.21735 7.29635 9.44192V15.8999C7.29635 16.3683 7.63539 16.7462 8.05415 16.7462H13.8338L13.836 16.7486Z" fill="#FFDF70"/>
<path d="M21.8838 16.7475H29.1642L21.8838 8.5874V16.7475Z" fill="#FFDF70"/>
<path d="M39.4843 7.23237H46.2216C48.9744 7.23237 51.4167 7.23237 52.8878 9.59423C53.5286 10.6557 53.8368 12.1676 53.8368 13.4408C53.8368 14.4748 53.6466 15.484 53.2672 16.3589C51.8207 19.7026 48.7363 19.7822 46.4586 19.8345H43.6836V25.9632H39.4843V7.23237ZM43.6857 10.6819V16.3589H46.2025C47.7702 16.3589 49.6694 16.3066 49.6694 13.4146C49.6694 10.6807 47.5555 10.6807 46.3449 10.6807L43.6857 10.6819ZM58.8682 13.5441C59.6749 12.7739 60.5528 12.1642 62.45 11.9513V15.5601L61.2405 15.7717C59.4858 16.1163 58.9628 16.4088 58.9628 18.1597V25.9596H55.3099V12.0844H58.8682V13.5441ZM76.7069 19.006C76.7069 22.509 74.9043 26.3555 70.0641 26.3555C66.577 26.3555 63.3981 24.1267 63.3981 19.006C63.3981 14.7613 65.7937 11.3915 70.5393 11.6839C75.5919 12.0024 76.7069 16.4861 76.7069 19.006ZM67.6919 16.2757C67.2413 17.0721 67.0755 18.029 67.0755 18.9858C67.0755 21.1908 68.0235 23.1307 70.0641 23.1307C72.0336 23.1307 73.0061 21.35 73.0061 19.1724C73.0061 17.6307 72.6734 16.435 71.9858 15.6908C71.2269 14.8944 70.3724 14.8671 69.8506 14.9206C68.8068 15.0002 68.1904 15.3985 67.693 16.2757H67.6919ZM79.6732 10.7271C79.6732 10.0376 79.72 9.10808 80.1941 8.36516C80.6457 7.67575 81.665 6.95898 83.374 6.95898C84.1095 6.95898 84.845 7.09211 85.556 7.19672V10.2492H84.6781C83.3028 10.2492 83.2316 10.5677 83.255 12.4244H85.6985V14.9182H83.2784V25.9561H79.6488V14.9182H77.7038V12.4244H79.6732V10.7271Z" fill="#FFDF70"/>
<path d="M87.5246 10.3655H91.1289V7.2085H87.5246V10.3655ZM87.5246 25.9666H91.1289V12.0903H87.5246V25.9666Z" fill="#FFDF70"/>
<path d="M94.8537 8.1001H98.4832V12.4244H100.88V14.9182H98.4598V21.1539C98.4364 22.0026 98.4364 22.7193 99.4092 22.7193L100.713 22.6659V25.8491C99.9312 25.9823 99.4561 26.0619 98.7928 26.0619C97.5338 26.0619 96.1587 25.9823 95.3757 24.708C94.878 23.8866 94.8546 22.9048 94.8546 21.5783V14.8921H93.0511V12.3983H94.8537V8.1001Z" fill="#FFDF70"/>
<path d="M114.585 7.23242C115.085 9.24837 115.582 11.2655 116.126 13.2827C117.053 16.8902 117.219 17.4739 117.74 21.1088C118.238 17.3943 118.357 16.7583 119.116 12.9368C119.472 11.0267 119.851 9.11644 120.207 7.23242H124.359L120.113 25.9633H115.795C115.274 23.895 114.774 21.8243 114.229 19.7822C113.327 16.3327 113.28 16.1996 112.781 13.5739C112.355 15.8822 112.308 16.0677 111.358 19.6491L109.745 25.9633H105.427L101.182 7.23242H105.357C107.16 16.12 107.351 17.1018 107.847 21.1611C108.464 17.4477 108.631 16.731 109.509 13.0164L110.884 7.23242H114.585Z" fill="#FFDF70"/>
<path d="M136.623 22.4376C136.196 23.1543 135.768 23.8438 135.128 24.507C134.06 25.622 132.447 26.4707 130.455 26.4707C126.778 26.4707 124.192 23.8438 124.192 19.3066C124.192 15.9642 125.663 11.666 130.549 11.666C131.286 11.666 133.419 11.7456 135.01 13.6558C136.623 15.5933 136.718 18.2986 136.765 19.8641H127.917C127.893 21.5877 128.77 23.3136 130.74 23.3136C132.732 23.3136 133.42 21.8539 133.871 20.8721L136.623 22.4376ZM132.993 17.305C132.922 16.7237 132.827 15.9582 132.304 15.3508C131.853 14.848 131.168 14.5841 130.526 14.5841C129.649 14.5841 129.032 15.0596 128.676 15.4827C128.176 16.0902 128.059 16.7237 127.94 17.305H132.993Z" fill="#FFDF70"/>
<path d="M138.88 25.9633H142.533V7.23242H138.88V25.9633Z" fill="#FFDF70"/>
<path d="M145.799 25.9633H149.452V7.23242H145.799V25.9633Z" fill="#FFDF70"/>
</g>
<defs>
<clipPath id="clip0">
<rect width="150" height="32" fill="white"/>
</clipPath>
</defs>
</svg>