<svg width="118" height="32" viewBox="0 0 118 32" fill="none" xmlns="http://www.w3.org/2000/svg">
<g clip-path="url(#clip0)">
<path d="M28.5717 8.00176C28.5714 8.0012 28.5709 8.00016 28.5704 7.9991C28.569 7.99725 28.5675 7.99487 28.5661 7.99302C28.5333 7.93816 28.4984 7.88514 28.4608 7.83343C28.4511 7.81998 28.4407 7.80731 28.4304 7.79386C28.4008 7.75508 28.3703 7.71736 28.3381 7.68069C28.3198 7.65985 28.3005 7.63954 28.2817 7.61949C28.2555 7.59258 28.2291 7.56594 28.2015 7.53982C28.1762 7.51608 28.1499 7.4926 28.1238 7.47044C28.0995 7.45013 28.0754 7.43034 28.0505 7.41082C28.0204 7.38708 27.9891 7.36466 27.9576 7.3425C27.9338 7.32614 27.9103 7.31006 27.8857 7.29422C27.8521 7.27312 27.8182 7.25307 27.7836 7.23382C27.7589 7.21983 27.7341 7.20638 27.7087 7.19346C27.6727 7.17525 27.6362 7.15784 27.5992 7.14202C27.574 7.13094 27.5489 7.11986 27.5229 7.10957C27.4833 7.094 27.4428 7.08002 27.4023 7.06657C27.379 7.05919 27.3561 7.05153 27.3325 7.04494C27.2854 7.03122 27.2375 7.01908 27.1894 7.00879C27.1724 7.00537 27.1558 7.00114 27.1388 6.99798C27.0793 6.98637 27.0187 6.97766 26.9587 6.97107C26.9523 6.97054 26.9467 6.96949 26.9407 6.96896C26.5108 6.92596 26.064 7.00774 25.661 7.2354L14.4274 13.5895L6.39362 9.04504L14.434 4.49664L19.7947 7.5269C20.8135 8.10224 22.1162 7.76088 22.7046 6.76294C23.293 5.76472 22.9437 4.48794 21.925 3.9118L15.4997 0.27956C14.8407 -0.0931868 14.0284 -0.0931868 13.3695 0.27956L1.11915 7.20875C0.783431 7.38629 0.490831 7.65194 0.286065 7.9991C-0.302574 8.9976 0.046376 10.2738 1.06518 10.8497L13.3629 17.8066C13.3647 17.8077 13.3663 17.8079 13.3679 17.809C13.4324 17.8451 13.4994 17.876 13.567 17.905C13.5859 17.9132 13.6039 17.9237 13.6226 17.9311C13.6634 17.9474 13.7057 17.9588 13.7472 17.9722C13.9698 18.0458 14.1983 18.0865 14.4258 18.0865C14.4264 18.0865 14.4272 18.0865 14.428 18.0865C14.4282 18.0865 14.429 18.0865 14.4298 18.0865C14.6624 18.0865 14.8962 18.0446 15.1229 17.9675C15.1592 17.9551 15.1965 17.9458 15.2322 17.9314C15.2537 17.923 15.2742 17.9108 15.2957 17.9015C15.3608 17.8734 15.4253 17.8438 15.4873 17.809C15.4891 17.8079 15.4909 17.8077 15.4928 17.8066L24.5991 12.6562V21.7527L14.4306 27.5038L4.26341 21.7527V16.0011C4.26341 14.8486 3.30942 13.9145 2.13346 13.9145C0.95698 13.9145 0.00325318 14.8486 0.00325318 16.0011V22.9575C0.00325318 23.703 0.408818 24.3915 1.06809 24.7642L13.3657 31.7209C13.6949 31.9069 14.0629 32 14.4306 32C14.7983 32 15.1663 31.9069 15.4957 31.7209L27.7939 24.7642C28.4531 24.3915 28.8587 23.703 28.8587 22.9575V9.04504C28.8587 8.66464 28.7534 8.30904 28.5717 8.00176Z" fill="#FFDF70"/>
<path fill-rule="evenodd" clip-rule="evenodd" d="M39.9058 19.6788C40.6166 20.1394 41.3384 20.4811 42.0714 20.704C42.8043 20.9268 43.5262 21.0383 44.2369 21.0383C44.9477 21.0383 45.5215 20.8748 45.9583 20.548C46.3951 20.2211 46.6135 19.7976 46.6135 19.2776C46.6135 18.8468 46.4395 18.5088 46.0915 18.2636C45.7436 18.0185 45.3067 17.7993 44.7811 17.6062C44.2554 17.4131 43.6891 17.2162 43.082 17.0156C42.4749 16.8151 41.9085 16.5476 41.3829 16.2133C40.8573 15.879 40.4204 15.437 40.0725 14.8873C39.7245 14.3376 39.5505 13.617 39.5505 12.7256C39.5505 12.0421 39.6911 11.4181 39.9725 10.8536C40.2539 10.289 40.6462 9.80236 41.1496 9.3938C41.6531 8.98524 42.2565 8.66948 42.9598 8.44668C43.6632 8.2238 44.4368 8.11236 45.2808 8.11236C45.9916 8.11236 46.6987 8.17924 47.402 8.31292C48.1053 8.44668 48.8124 8.65468 49.5231 8.93692V12.1907C48.8568 11.8044 48.1905 11.5184 47.5241 11.3327C46.8578 11.147 46.1989 11.0541 45.5474 11.0541C44.8662 11.0541 44.3147 11.2027 43.8927 11.4998C43.4707 11.797 43.2597 12.1907 43.2597 12.681C43.2597 13.097 43.4336 13.4239 43.7817 13.6616C44.1296 13.8993 44.5627 14.111 45.0809 14.2968C45.5992 14.4824 46.1656 14.6756 46.7801 14.8762C47.3945 15.0768 47.9609 15.3479 48.4792 15.6896C48.9974 16.0313 49.4305 16.4808 49.7785 17.0379C50.1265 17.5951 50.3004 18.3268 50.3004 19.2331C50.3004 19.9314 50.1561 20.574 49.8674 21.1608C49.5787 21.7477 49.1788 22.2491 48.668 22.6651C48.1572 23.0812 47.5463 23.4043 46.8356 23.6346C46.1248 23.8648 45.3475 23.98 44.5035 23.98C42.9487 23.98 41.4162 23.6457 39.9058 22.9772V19.6788ZM51.3799 7.68893H55.0003V13.3496C55.9627 12.6512 56.977 12.3021 58.0431 12.3021C58.6206 12.3021 59.1536 12.4024 59.6423 12.603C60.1309 12.8036 60.5529 13.0859 60.9083 13.4499C61.2637 13.8139 61.5413 14.2484 61.7412 14.7536C61.9411 15.2588 62.041 15.8084 62.041 16.4028V23.7126H58.4207V17.0713C58.4207 16.6108 58.2763 16.2319 57.9876 15.9348C57.6988 15.6376 57.3324 15.489 56.8881 15.489C56.2218 15.489 55.5925 15.7862 55.0003 16.3804V23.7126H51.3799V7.68893ZM63.5203 12.5696H67.1406V23.7126H63.5203V12.5696ZM63.3426 9.60556C63.3426 9.01124 63.5277 8.53212 63.8979 8.16812C64.2681 7.80407 64.7492 7.62207 65.3415 7.62207C65.9042 7.62207 66.3744 7.80407 66.7519 8.16812C67.1295 8.53212 67.3183 9.01124 67.3183 9.60556C67.3183 10.1701 67.1295 10.6381 66.7519 11.0096C66.3744 11.381 65.9042 11.5667 65.3415 11.5667C64.7492 11.5667 64.2681 11.381 63.8979 11.0096C63.5277 10.6381 63.3426 10.1701 63.3426 9.60556ZM76.2825 18.1411C76.2825 17.3239 76.0789 16.6664 75.6717 16.1688C75.2645 15.671 74.7351 15.4222 74.0837 15.4222C73.4321 15.4222 72.8473 15.6822 72.3291 16.2022V20.08C72.8473 20.6 73.4321 20.86 74.0837 20.86C74.7351 20.86 75.2645 20.6074 75.6717 20.1022C76.0789 19.5971 76.2825 18.9434 76.2825 18.1411ZM68.7087 12.5696H72.3291V13.1713C73.173 12.5919 74.0393 12.3021 74.9277 12.3021C75.6681 12.3021 76.3491 12.447 76.9711 12.7367C77.593 13.0264 78.126 13.4276 78.5702 13.9401C79.0144 14.4528 79.3587 15.0656 79.603 15.7788C79.8477 16.4919 79.9697 17.2793 79.9697 18.1411C79.9697 19.0028 79.8477 19.7902 79.603 20.5034C79.3587 21.2165 79.0144 21.8294 78.5702 22.342C78.126 22.8545 77.593 23.2557 76.9711 23.5454C76.3491 23.8352 75.6681 23.98 74.9277 23.98C74.0393 23.98 73.173 23.6903 72.3291 23.1108V28.5932H68.7087V12.5696ZM84.8029 20.86H87.1789C87.7418 20.86 88.2042 20.6928 88.567 20.3585C88.9297 20.0242 89.1115 19.5971 89.1115 19.0771C89.1115 18.5571 88.9297 18.13 88.567 17.7956C88.2042 17.4613 87.7418 17.2942 87.1789 17.2942H84.8029V20.86ZM84.8029 14.5308H86.8679C87.3862 14.5308 87.8159 14.3748 88.1564 14.0628C88.4968 13.7508 88.6674 13.357 88.6674 12.8816C88.6674 12.3912 88.4968 11.9939 88.1564 11.6892C87.8159 11.3847 87.3862 11.2324 86.8679 11.2324H84.8029V14.5308ZM81.2709 8.3798H87.5568C88.2377 8.3798 88.8596 8.4838 89.4225 8.6918C89.9854 8.8998 90.4733 9.18956 90.8879 9.56092C91.3025 9.93236 91.6246 10.3707 91.8542 10.8758C92.0839 11.381 92.1987 11.9307 92.1987 12.525C92.1987 13.2828 92.0209 13.9588 91.6653 14.553C91.3105 15.1473 90.8217 15.5856 90.1998 15.8679C90.9995 16.1651 91.6174 16.6293 92.0543 17.2608C92.4913 17.8922 92.7097 18.6165 92.7097 19.4336C92.7097 20.0576 92.5909 20.6334 92.3541 21.1608C92.1173 21.6883 91.788 22.1414 91.3655 22.5203C90.9437 22.8992 90.4406 23.1925 89.8554 23.4005C89.2702 23.6086 88.63 23.7126 87.9339 23.7126H81.2709V8.3798ZM93.145 18.1411C93.145 17.2793 93.2925 16.4919 93.5891 15.7788C93.8849 15.0656 94.2995 14.4528 94.8329 13.9401C95.3663 13.4276 95.9986 13.0264 96.7321 12.7367C97.4648 12.447 98.2685 12.3021 99.1415 12.3021C100.015 12.3021 100.819 12.447 101.552 12.7367C102.284 13.0264 102.914 13.4276 103.44 13.9401C103.965 14.4528 104.376 15.0656 104.672 15.7788C104.968 16.4919 105.116 17.2793 105.116 18.1411C105.116 18.988 104.968 19.7716 104.672 20.4922C104.376 21.2128 103.965 21.8294 103.44 22.342C102.914 22.8545 102.284 23.2557 101.552 23.5454C100.819 23.8352 100.015 23.98 99.1415 23.98C98.2685 23.98 97.4648 23.8352 96.7321 23.5454C95.9986 23.2557 95.3663 22.8545 94.8329 22.342C94.2995 21.8294 93.8849 21.2128 93.5891 20.4922C93.2925 19.7716 93.145 18.988 93.145 18.1411ZM96.8541 18.1411C96.8541 18.988 97.0654 19.6676 97.4871 20.1802C97.9089 20.6928 98.4606 20.9491 99.1415 20.9491C99.8081 20.9491 100.356 20.6928 100.786 20.1802C101.214 19.6676 101.43 18.988 101.43 18.1411C101.43 17.2942 101.214 16.6144 100.786 16.1019C100.356 15.5893 99.8081 15.333 99.1415 15.333C98.4606 15.333 97.9089 15.5893 97.4871 16.1019C97.0654 16.6144 96.8541 17.2942 96.8541 18.1411ZM113.569 18.1411C113.569 17.3239 113.366 16.6664 112.959 16.1688C112.552 15.671 112.023 15.4222 111.371 15.4222C110.719 15.4222 110.135 15.6822 109.616 16.2022V20.08C110.135 20.6 110.719 20.86 111.371 20.86C112.023 20.86 112.552 20.6074 112.959 20.1022C113.366 19.5971 113.569 18.9434 113.569 18.1411ZM105.996 7.68893H109.616V13.1713C110.46 12.5919 111.327 12.3021 112.215 12.3021C112.955 12.3021 113.636 12.447 114.258 12.7367C114.88 13.0264 115.414 13.4276 115.858 13.9401C116.302 14.4528 116.646 15.0656 116.89 15.7788C117.135 16.4919 117.257 17.2793 117.257 18.1411C117.257 19.0028 117.135 19.7902 116.89 20.5034C116.646 21.2165 116.302 21.8294 115.858 22.342C115.414 22.8545 114.88 23.2557 114.258 23.5454C113.636 23.8352 112.955 23.98 112.215 23.98C111.327 23.98 110.46 23.6903 109.616 23.1108V23.7126H105.996V7.68893Z" fill="#FFDF70"/>
</g>
<defs>
<clipPath id="clip0">
<rect width="118" height="32" fill="white"/>
</clipPath>
</defs>
</svg>