<svg width="150" height="32" viewBox="0 0 150 32" fill="none" xmlns="http://www.w3.org/2000/svg">
<g clip-path="url(#clip0)">
<path fill-rule="evenodd" clip-rule="evenodd" d="M18.3373 0.219833C18.1914 0.390936 18.1832 0.615155 18.1625 5.15679C18.149 8.04153 18.1104 9.91498 18.0652 9.91498C18.0238 9.91498 17.9251 9.84296 17.8462 9.75511C17.682 9.57125 16.8273 9.00839 16.2082 8.67537C14.5658 7.79279 11.7563 7.32954 9.77553 7.61505C8.34118 7.82139 5.84133 8.76527 5.26451 9.31739C5.17639 9.40218 4.85139 9.64377 4.54228 9.85471C4.00447 10.2214 2.17483 12.1015 2.17483 12.287C2.17483 12.335 1.97067 12.6904 1.72078 13.077C0.975451 14.2319 0.64419 15.1038 0.189669 17.1085C-0.166147 18.6781 -0.011591 21.2456 0.571486 23.4499C0.79345 24.2902 1.85127 26.3873 2.1103 26.5007C2.14593 26.516 2.17483 26.5687 2.17483 26.6171C2.17483 26.916 3.62553 28.4666 4.66265 29.2761C7.46634 31.4653 11.7434 32.1185 14.9833 30.8523C15.8518 30.5133 17.42 29.6638 17.8125 29.3201L18.1042 29.0642L18.1442 30.0387C18.1808 30.9218 18.2025 31.0337 18.3787 31.2323L18.5732 31.452H20.3561C21.9917 31.452 22.1545 31.4387 22.3283 31.289L22.5175 31.1266V16.6933C22.5175 3.9749 22.5036 2.24549 22.3972 2.1367C22.3312 2.06877 22.024 1.87161 21.7153 1.69795C21.4062 1.5243 21.0812 1.31541 20.9932 1.23317C19.9637 0.277037 18.6998 -0.205114 18.3373 0.219833ZM85.7647 0.196338C85.6515 0.329135 85.6323 0.577362 85.6323 1.87978C85.6323 3.62095 85.6265 3.60206 86.292 4.05101C86.525 4.20832 86.784 4.40291 86.8673 4.48361C86.9511 4.56431 87.2222 4.74053 87.4691 4.87486C87.7166 5.00918 88.1654 5.29826 88.4659 5.51687C89.1847 6.03937 89.6108 6.0547 89.8482 5.56744C90.0243 5.20582 90.0201 0.654997 89.8428 0.291849L89.7205 0.0405579H87.8091C86.0593 0.0405579 85.8865 0.0538376 85.7647 0.196338ZM133.179 0.0982726C132.039 0.2515 130.112 0.865937 129.143 1.38487C128.891 1.52022 128.586 1.6571 128.465 1.68825C128.207 1.75618 126.674 2.83847 125.885 3.51165C124.85 4.39423 123.173 6.35911 122.787 7.14158C122.517 7.68706 122.127 8.38425 122.07 8.42204C121.968 8.48845 121.208 10.4344 121.021 11.1071C120.298 13.7002 120.299 13.6879 120.299 21.6056V28.465L120.492 29.031C120.599 29.3425 120.774 29.6985 120.879 29.8222C120.985 29.9463 121.13 30.147 121.201 30.269C121.386 30.5847 122.165 31.1098 122.725 31.2946C123.38 31.5107 135.337 31.5347 136.75 31.3223C139.012 30.9826 141.809 29.8298 143.37 28.5933C143.635 28.3833 143.925 28.1791 144.014 28.1392C144.103 28.0989 144.513 27.7265 144.926 27.3118C145.339 26.8966 145.709 26.5441 145.748 26.5283C145.787 26.5125 146.099 26.131 146.44 25.6805C146.783 25.2299 147.138 24.7723 147.234 24.664C147.327 24.5558 147.538 24.1906 147.702 23.8525C147.866 23.5138 148.048 23.1798 148.108 23.1093C148.166 23.0383 148.391 22.5782 148.609 22.0863C150.232 18.3991 150.288 13.3626 148.748 9.61619C148.498 9.00787 148.245 8.4532 148.186 8.38272C148.127 8.31274 147.949 7.98075 147.791 7.64569C147.197 6.38567 145.175 4.01015 143.932 3.11274C143.711 2.95288 143.35 2.68117 143.129 2.50751C140.865 0.730078 136.443 -0.340466 133.179 0.0982726ZM136.228 5.96122C137.977 6.4444 139.378 7.94398 139.838 9.82508C140.05 10.6934 140.013 16.1319 139.79 16.9287C139.61 17.5737 139.398 18.0646 139.174 18.3577C138.147 19.7051 137.485 20.225 136.324 20.5963C133.97 21.3493 131.173 19.7475 130.426 17.2187C130.187 16.4097 130.054 11.2046 130.246 10.1622C130.81 7.0905 133.495 5.20582 136.228 5.96122ZM35.7583 7.50064C34.0355 7.65183 31.306 8.67845 30.3666 9.52834C30.1986 9.68055 29.9367 9.8731 29.7846 9.95584C29.2477 10.249 27.6366 12.1215 27.183 12.9795C25.8499 15.5011 25.4468 17.0079 25.4468 19.4656C25.4468 29.7849 36.9668 35.2938 44.2218 28.4441C46.6976 26.1064 46.7968 25.5875 44.854 25.1222C44.3095 24.992 43.5295 24.7918 43.1216 24.6784C42.018 24.3709 41.8279 24.3907 41.3214 24.8683C38.9265 27.1249 35.5402 27.3971 32.9508 25.5415C31.6898 24.6379 30.6282 23.2666 30.3032 22.1221L30.1972 21.7477H38.8475H47.4978L47.7568 21.4907L48.0164 21.2338L47.9711 19.5115C47.9451 18.5064 47.8783 17.559 47.8103 17.2361C47.7467 16.9318 47.6351 16.3954 47.5618 16.044C47.4146 15.3367 46.7371 13.7666 46.2951 13.1072C46.1381 12.8733 45.9874 12.6051 45.9604 12.5112C45.8651 12.1792 44.1809 10.3369 43.6228 9.95379C43.4018 9.80262 43.0865 9.56409 42.9213 9.42363C41.4817 8.20139 38.1055 7.29531 35.7583 7.50064ZM59.1102 7.6176C58.4188 7.68195 57.2648 7.97207 56.8974 8.1733C56.7726 8.24175 56.6138 8.29793 56.5439 8.29793C55.5324 8.29793 52.9757 10.8589 52.0079 12.8422C50.8278 15.259 50.7946 15.5782 50.8225 24.1599L50.8451 31.0414L51.07 31.2466C51.3598 31.5107 54.5713 31.571 54.9339 31.3192C55.2574 31.0939 55.2574 31.0934 55.2988 23.6206L55.3388 16.3423L55.5849 15.6987C55.7206 15.3448 56.0336 14.7702 56.2805 14.4218C57.0967 13.2702 57.0268 13.3335 58.1877 12.693C59.4237 12.0106 60.7526 12.0683 61.9573 12.8565C62.2755 13.0648 62.5615 13.2349 62.5924 13.2349C62.8885 13.2349 64.0657 15.1007 64.3315 15.9904C64.6617 17.0973 64.6863 17.6922 64.6869 24.5619C64.6877 31.0025 64.6897 31.0817 64.851 31.2656C65.1183 31.5699 68.4192 31.5536 68.7559 31.2466L68.9807 31.0414L69.0245 23.9046L69.0688 16.7678L69.3163 15.9592C70.8522 10.9452 76.4683 11.0366 78.1472 16.1033L78.3677 16.7678L78.4086 23.9694C78.4428 29.8998 78.4692 31.1955 78.5603 31.3115C78.7615 31.5689 82.3351 31.5184 82.5686 31.2549L82.7434 31.0582V23.9066C82.7434 15.8464 82.753 16.0088 82.1439 14.1322C81.6191 12.5147 80.3855 10.5396 79.5338 9.95226C79.3792 9.84602 79.0962 9.60801 78.9046 9.42415C77.3898 7.96747 73.9886 7.18551 71.8036 7.79177C69.9152 8.31581 68.6937 9.05027 67.399 10.4395L66.7803 11.1035L66.4361 10.675C64.7417 8.56455 61.858 7.3607 59.1102 7.6176ZM86.1354 7.59155C85.5928 7.70239 85.6323 6.77078 85.6323 19.5821V31.0991L85.8437 31.2758C86.056 31.453 89.2136 31.5567 89.6007 31.3989C89.9763 31.2462 89.9657 31.6032 89.9657 19.5345C89.9657 7.15332 89.9902 7.80454 89.515 7.61301C89.3204 7.53435 86.5009 7.51648 86.1354 7.59155ZM102.203 7.69728C101.221 7.8832 99.8052 8.35308 99.11 8.72493C98.5717 9.01248 97.7387 9.55234 97.6695 9.65858C97.6473 9.69178 97.4666 9.8261 97.2678 9.95584C97.0695 10.0861 96.5677 10.5611 96.1537 11.0116C93.4265 13.9765 92.4059 17.5007 93.0197 21.8329C93.4467 24.8454 95.884 28.4538 98.4715 29.9049C99.5458 30.5071 99.7759 30.6174 100.541 30.8968C104.527 32.3514 109.138 31.1848 112.193 27.9497C114.739 25.255 116.022 20.6515 115.215 17.1085C114.761 15.1083 114.472 14.3227 113.808 13.2778C113.6 12.9498 113.335 12.5096 113.218 12.2986C112.921 11.7568 111.517 10.3098 110.732 9.73315C108.234 7.90159 105.091 7.15129 102.203 7.69728ZM134.167 7.62271C133.252 7.85205 132.362 8.71165 132.024 9.69127L131.814 10.298V13.2778C131.814 16.1747 131.82 16.2723 132 16.8102C132.933 19.5902 136.737 19.8338 137.982 17.1933C138.346 16.4219 138.366 16.1805 138.339 13.0633L138.314 10.128L138.066 9.57481C137.366 8.01293 135.779 7.21871 134.167 7.62271ZM135.593 11.2261L135.867 11.5157V13.7185C135.867 15.6549 135.851 15.9465 135.73 16.1319C135.387 16.6595 134.952 16.7086 134.535 16.2657L134.262 15.9761V13.7456V11.5157L134.535 11.2261C134.732 11.0177 134.879 10.9365 135.064 10.9365C135.25 10.9365 135.398 11.0177 135.593 11.2261ZM12.8705 12.3784C17.761 13.7119 19.7591 19.675 16.7378 23.9184C16.1667 24.7202 15.9559 24.9286 14.938 25.6978C12.3346 27.6647 8.2786 26.9926 5.9978 24.2161C1.70346 18.989 6.54333 10.6525 12.8705 12.3784ZM38.4869 12.3834C40.5625 13.0623 42.2097 14.5593 42.9796 16.4664L43.2555 17.1509H36.7217H30.1885L30.2973 16.8234C30.5236 16.1426 31.0624 15.1824 31.4259 14.8101C31.5174 14.7161 31.672 14.5296 31.7692 14.3949C33.0129 12.6699 36.327 11.6776 38.4869 12.3834ZM105.894 12.4285C107.268 12.8507 108.033 13.3279 109.001 14.3662C113.891 19.6131 109.301 28.2705 102.508 26.6111C101.376 26.3347 100.966 26.1126 99.6637 25.0686C97.7195 23.5097 96.8215 20.389 97.509 17.5824C98.4547 13.7253 102.341 11.3364 105.894 12.4285ZM143.298 18.1213C143.448 18.2807 143.571 18.4936 143.571 18.5953C143.571 19.0753 142.714 21.3621 142.454 21.5776C142.426 21.6006 142.177 21.9264 141.9 22.3008C141.624 22.6757 141.277 23.0776 141.132 23.1946C140.984 23.3121 140.598 23.6231 140.272 23.8866C139.379 24.6079 138.558 24.9945 136.95 25.4511C134.982 26.0104 131.849 25.4138 130.138 24.1538C128.96 23.2865 127.586 21.7783 127.402 21.1515C127.367 21.0346 127.221 20.6878 127.076 20.3803C126.382 18.9089 126.493 18.1299 127.401 18.1299C127.858 18.1299 128.035 18.3138 128.251 19.012C128.347 19.3225 128.547 19.7991 128.696 20.0709C128.843 20.3425 128.966 20.5954 128.966 20.6327C128.966 20.9621 130.611 22.6011 131.309 22.9669C135.545 25.1886 140.441 23.4015 141.764 19.1514C142.179 17.8169 142.689 17.4752 143.298 18.1213Z" fill="#FFDF70"/>
<path fill-rule="evenodd" clip-rule="evenodd" d="M18.3373 0.219833C18.1914 0.390936 18.1832 0.615155 18.1625 5.15679C18.149 8.04153 18.1104 9.91498 18.0652 9.91498C18.0238 9.91498 17.9251 9.84296 17.8462 9.75511C17.682 9.57125 16.8273 9.00839 16.2082 8.67537C14.5658 7.79279 11.7563 7.32954 9.77553 7.61505C8.34118 7.82139 5.84133 8.76527 5.26451 9.31739C5.17639 9.40218 4.85139 9.64377 4.54228 9.85471C4.00447 10.2214 2.17483 12.1015 2.17483 12.287C2.17483 12.335 1.97067 12.6904 1.72078 13.077C0.975451 14.2319 0.64419 15.1038 0.189669 17.1085C-0.166147 18.6781 -0.011591 21.2456 0.571486 23.4499C0.79345 24.2902 1.85127 26.3873 2.1103 26.5007C2.14593 26.516 2.17483 26.5687 2.17483 26.6171C2.17483 26.916 3.62553 28.4666 4.66265 29.2761C7.46634 31.4653 11.7434 32.1185 14.9833 30.8523C15.8518 30.5133 17.42 29.6638 17.8125 29.3201L18.1042 29.0642L18.1442 30.0387C18.1808 30.9218 18.2025 31.0337 18.3787 31.2323L18.5732 31.452H20.3561C21.9917 31.452 22.1545 31.4387 22.3283 31.289L22.5175 31.1266V16.6933C22.5175 3.9749 22.5036 2.24549 22.3972 2.1367C22.3312 2.06877 22.024 1.87161 21.7153 1.69795C21.4062 1.5243 21.0812 1.31541 20.9932 1.23317C19.9637 0.277037 18.6998 -0.205114 18.3373 0.219833ZM85.7647 0.196338C85.6515 0.329135 85.6323 0.577362 85.6323 1.87978C85.6323 3.62095 85.6265 3.60206 86.292 4.05101C86.525 4.20832 86.784 4.40291 86.8673 4.48361C86.9511 4.56431 87.2222 4.74053 87.4691 4.87486C87.7166 5.00918 88.1654 5.29826 88.4659 5.51687C89.1847 6.03937 89.6108 6.0547 89.8482 5.56744C90.0243 5.20582 90.0201 0.654997 89.8428 0.291849L89.7205 0.0405579H87.8091C86.0593 0.0405579 85.8865 0.0538376 85.7647 0.196338ZM133.179 0.0982726C132.039 0.2515 130.112 0.865937 129.143 1.38487C128.891 1.52022 128.586 1.6571 128.465 1.68825C128.207 1.75618 126.674 2.83847 125.885 3.51165C124.85 4.39423 123.173 6.35911 122.787 7.14158C122.517 7.68706 122.127 8.38425 122.07 8.42204C121.968 8.48845 121.208 10.4344 121.021 11.1071C120.298 13.7002 120.299 13.6879 120.299 21.6056V28.465L120.492 29.031C120.599 29.3425 120.774 29.6985 120.879 29.8222C120.985 29.9463 121.13 30.147 121.201 30.269C121.386 30.5847 122.165 31.1098 122.725 31.2946C123.38 31.5107 135.337 31.5347 136.75 31.3223C139.012 30.9826 141.809 29.8298 143.37 28.5933C143.635 28.3833 143.925 28.1791 144.014 28.1392C144.103 28.0989 144.513 27.7265 144.926 27.3118C145.339 26.8966 145.709 26.5441 145.748 26.5283C145.787 26.5125 146.099 26.131 146.44 25.6805C146.783 25.2299 147.138 24.7723 147.234 24.664C147.327 24.5558 147.538 24.1906 147.702 23.8525C147.866 23.5138 148.048 23.1798 148.108 23.1093C148.166 23.0383 148.391 22.5782 148.609 22.0863C150.232 18.3991 150.288 13.3626 148.748 9.61619C148.498 9.00787 148.245 8.4532 148.186 8.38272C148.127 8.31274 147.949 7.98075 147.791 7.64569C147.197 6.38567 145.175 4.01015 143.932 3.11274C143.711 2.95288 143.35 2.68117 143.129 2.50751C140.865 0.730078 136.443 -0.340466 133.179 0.0982726ZM136.228 5.96122C137.977 6.4444 139.378 7.94398 139.838 9.82508C140.05 10.6934 140.013 16.1319 139.79 16.9287C139.61 17.5737 139.398 18.0646 139.174 18.3577C138.147 19.7051 137.485 20.225 136.324 20.5963C133.97 21.3493 131.173 19.7475 130.426 17.2187C130.187 16.4097 130.054 11.2046 130.246 10.1622C130.81 7.0905 133.495 5.20582 136.228 5.96122ZM35.7583 7.50064C34.0355 7.65183 31.306 8.67845 30.3666 9.52834C30.1986 9.68055 29.9367 9.8731 29.7846 9.95584C29.2477 10.249 27.6366 12.1215 27.183 12.9795C25.8499 15.5011 25.4468 17.0079 25.4468 19.4656C25.4468 29.7849 36.9668 35.2938 44.2218 28.4441C46.6976 26.1064 46.7968 25.5875 44.854 25.1222C44.3095 24.992 43.5295 24.7918 43.1216 24.6784C42.018 24.3709 41.8279 24.3907 41.3214 24.8683C38.9265 27.1249 35.5402 27.3971 32.9508 25.5415C31.6898 24.6379 30.6282 23.2666 30.3032 22.1221L30.1972 21.7477H38.8475H47.4978L47.7568 21.4907L48.0164 21.2338L47.9711 19.5115C47.9451 18.5064 47.8783 17.559 47.8103 17.2361C47.7467 16.9318 47.6351 16.3954 47.5618 16.044C47.4146 15.3367 46.7371 13.7666 46.2951 13.1072C46.1381 12.8733 45.9874 12.6051 45.9604 12.5112C45.8651 12.1792 44.1809 10.3369 43.6228 9.95379C43.4018 9.80262 43.0865 9.56409 42.9213 9.42363C41.4817 8.20139 38.1055 7.29531 35.7583 7.50064ZM59.1102 7.6176C58.4188 7.68195 57.2648 7.97207 56.8974 8.1733C56.7726 8.24175 56.6138 8.29793 56.5439 8.29793C55.5324 8.29793 52.9757 10.8589 52.0079 12.8422C50.8278 15.259 50.7946 15.5782 50.8225 24.1599L50.8451 31.0414L51.07 31.2466C51.3598 31.5107 54.5713 31.571 54.9339 31.3192C55.2574 31.0939 55.2574 31.0934 55.2988 23.6206L55.3388 16.3423L55.5849 15.6987C55.7206 15.3448 56.0336 14.7702 56.2805 14.4218C57.0967 13.2702 57.0268 13.3335 58.1877 12.693C59.4237 12.0106 60.7526 12.0683 61.9573 12.8565C62.2755 13.0648 62.5615 13.2349 62.5924 13.2349C62.8885 13.2349 64.0657 15.1007 64.3315 15.9904C64.6617 17.0973 64.6863 17.6922 64.6869 24.5619C64.6877 31.0025 64.6897 31.0817 64.851 31.2656C65.1183 31.5699 68.4192 31.5536 68.7559 31.2466L68.9807 31.0414L69.0245 23.9046L69.0688 16.7678L69.3163 15.9592C70.8522 10.9452 76.4683 11.0366 78.1472 16.1033L78.3677 16.7678L78.4086 23.9694C78.4428 29.8998 78.4692 31.1955 78.5603 31.3115C78.7615 31.5689 82.3351 31.5184 82.5686 31.2549L82.7434 31.0582V23.9066C82.7434 15.8464 82.753 16.0088 82.1439 14.1322C81.6191 12.5147 80.3855 10.5396 79.5338 9.95226C79.3792 9.84602 79.0962 9.60801 78.9046 9.42415C77.3898 7.96747 73.9886 7.18551 71.8036 7.79177C69.9152 8.31581 68.6937 9.05027 67.399 10.4395L66.7803 11.1035L66.4361 10.675C64.7417 8.56455 61.858 7.3607 59.1102 7.6176ZM86.1354 7.59155C85.5928 7.70239 85.6323 6.77078 85.6323 19.5821V31.0991L85.8437 31.2758C86.056 31.453 89.2136 31.5567 89.6007 31.3989C89.9763 31.2462 89.9657 31.6032 89.9657 19.5345C89.9657 7.15332 89.9902 7.80454 89.515 7.61301C89.3204 7.53435 86.5009 7.51648 86.1354 7.59155ZM102.203 7.69728C101.221 7.8832 99.8052 8.35308 99.11 8.72493C98.5717 9.01248 97.7387 9.55234 97.6695 9.65858C97.6473 9.69178 97.4666 9.8261 97.2678 9.95584C97.0695 10.0861 96.5677 10.5611 96.1537 11.0116C93.4265 13.9765 92.4059 17.5007 93.0197 21.8329C93.4467 24.8454 95.884 28.4538 98.4715 29.9049C99.5458 30.5071 99.7759 30.6174 100.541 30.8968C104.527 32.3514 109.138 31.1848 112.193 27.9497C114.739 25.255 116.022 20.6515 115.215 17.1085C114.761 15.1083 114.472 14.3227 113.808 13.2778C113.6 12.9498 113.335 12.5096 113.218 12.2986C112.921 11.7568 111.517 10.3098 110.732 9.73315C108.234 7.90159 105.091 7.15129 102.203 7.69728ZM134.167 7.62271C133.252 7.85205 132.362 8.71165 132.024 9.69127L131.814 10.298V13.2778C131.814 16.1747 131.82 16.2723 132 16.8102C132.933 19.5902 136.737 19.8338 137.982 17.1933C138.346 16.4219 138.366 16.1805 138.339 13.0633L138.314 10.128L138.066 9.57481C137.366 8.01293 135.779 7.21871 134.167 7.62271ZM135.593 11.2261L135.867 11.5157V13.7185C135.867 15.6549 135.851 15.9465 135.73 16.1319C135.387 16.6595 134.952 16.7086 134.535 16.2657L134.262 15.9761V13.7456V11.5157L134.535 11.2261C134.732 11.0177 134.879 10.9365 135.064 10.9365C135.25 10.9365 135.398 11.0177 135.593 11.2261ZM12.8705 12.3784C17.761 13.7119 19.7591 19.675 16.7378 23.9184C16.1667 24.7202 15.9559 24.9286 14.938 25.6978C12.3346 27.6647 8.2786 26.9926 5.9978 24.2161C1.70346 18.989 6.54333 10.6525 12.8705 12.3784ZM38.4869 12.3834C40.5625 13.0623 42.2097 14.5593 42.9796 16.4664L43.2555 17.1509H36.7217H30.1885L30.2973 16.8234C30.5236 16.1426 31.0624 15.1824 31.4259 14.8101C31.5174 14.7161 31.672 14.5296 31.7692 14.3949C33.0129 12.6699 36.327 11.6776 38.4869 12.3834ZM105.894 12.4285C107.268 12.8507 108.033 13.3279 109.001 14.3662C113.891 19.6131 109.301 28.2705 102.508 26.6111C101.376 26.3347 100.966 26.1126 99.6637 25.0686C97.7195 23.5097 96.8215 20.389 97.509 17.5824C98.4547 13.7253 102.341 11.3364 105.894 12.4285ZM143.298 18.1213C143.448 18.2807 143.571 18.4936 143.571 18.5953C143.571 19.0753 142.714 21.3621 142.454 21.5776C142.426 21.6006 142.177 21.9264 141.9 22.3008C141.624 22.6757 141.277 23.0776 141.132 23.1946C140.984 23.3121 140.598 23.6231 140.272 23.8866C139.379 24.6079 138.558 24.9945 136.95 25.4511C134.982 26.0104 131.849 25.4138 130.138 24.1538C128.96 23.2865 127.586 21.7783 127.402 21.1515C127.367 21.0346 127.221 20.6878 127.076 20.3803C126.382 18.9089 126.493 18.1299 127.401 18.1299C127.858 18.1299 128.035 18.3138 128.251 19.012C128.347 19.3225 128.547 19.7991 128.696 20.0709C128.843 20.3425 128.966 20.5954 128.966 20.6327C128.966 20.9621 130.611 22.6011 131.309 22.9669C135.545 25.1886 140.441 23.4015 141.764 19.1514C142.179 17.8169 142.689 17.4752 143.298 18.1213Z" fill="#FFDF70"/>
<path fill-rule="evenodd" clip-rule="evenodd" d="M18.3373 0.219833C18.1914 0.390936 18.1832 0.615155 18.1625 5.15679C18.149 8.04153 18.1104 9.91498 18.0652 9.91498C18.0238 9.91498 17.9251 9.84296 17.8462 9.75511C17.682 9.57125 16.8273 9.00839 16.2082 8.67537C14.5658 7.79279 11.7563 7.32954 9.77553 7.61505C8.34118 7.82139 5.84133 8.76527 5.26451 9.31739C5.17639 9.40218 4.85139 9.64377 4.54228 9.85471C4.00447 10.2214 2.17483 12.1015 2.17483 12.287C2.17483 12.335 1.97067 12.6904 1.72078 13.077C0.975451 14.2319 0.64419 15.1038 0.189669 17.1085C-0.166147 18.6781 -0.011591 21.2456 0.571486 23.4499C0.79345 24.2902 1.85127 26.3873 2.1103 26.5007C2.14593 26.516 2.17483 26.5687 2.17483 26.6171C2.17483 26.916 3.62553 28.4666 4.66265 29.2761C7.46634 31.4653 11.7434 32.1185 14.9833 30.8523C15.8518 30.5133 17.42 29.6638 17.8125 29.3201L18.1042 29.0642L18.1442 30.0387C18.1808 30.9218 18.2025 31.0337 18.3787 31.2323L18.5732 31.452H20.3561C21.9917 31.452 22.1545 31.4387 22.3283 31.289L22.5175 31.1266V16.6933C22.5175 3.9749 22.5036 2.24549 22.3972 2.1367C22.3312 2.06877 22.024 1.87161 21.7153 1.69795C21.4062 1.5243 21.0812 1.31541 20.9932 1.23317C19.9637 0.277037 18.6998 -0.205114 18.3373 0.219833ZM85.7647 0.196338C85.6515 0.329135 85.6323 0.577362 85.6323 1.87978C85.6323 3.62095 85.6265 3.60206 86.292 4.05101C86.525 4.20832 86.784 4.40291 86.8673 4.48361C86.9511 4.56431 87.2222 4.74053 87.4691 4.87486C87.7166 5.00918 88.1654 5.29826 88.4659 5.51687C89.1847 6.03937 89.6108 6.0547 89.8482 5.56744C90.0243 5.20582 90.0201 0.654997 89.8428 0.291849L89.7205 0.0405579H87.8091C86.0593 0.0405579 85.8865 0.0538376 85.7647 0.196338ZM133.179 0.0982726C132.039 0.2515 130.112 0.865937 129.143 1.38487C128.891 1.52022 128.586 1.6571 128.465 1.68825C128.207 1.75618 126.674 2.83847 125.885 3.51165C124.85 4.39423 123.173 6.35911 122.787 7.14158C122.517 7.68706 122.127 8.38425 122.07 8.42204C121.968 8.48845 121.208 10.4344 121.021 11.1071C120.298 13.7002 120.299 13.6879 120.299 21.6056V28.465L120.492 29.031C120.599 29.3425 120.774 29.6985 120.879 29.8222C120.985 29.9463 121.13 30.147 121.201 30.269C121.386 30.5847 122.165 31.1098 122.725 31.2946C123.38 31.5107 135.337 31.5347 136.75 31.3223C139.012 30.9826 141.809 29.8298 143.37 28.5933C143.635 28.3833 143.925 28.1791 144.014 28.1392C144.103 28.0989 144.513 27.7265 144.926 27.3118C145.339 26.8966 145.709 26.5441 145.748 26.5283C145.787 26.5125 146.099 26.131 146.44 25.6805C146.783 25.2299 147.138 24.7723 147.234 24.664C147.327 24.5558 147.538 24.1906 147.702 23.8525C147.866 23.5138 148.048 23.1798 148.108 23.1093C148.166 23.0383 148.391 22.5782 148.609 22.0863C150.232 18.3991 150.288 13.3626 148.748 9.61619C148.498 9.00787 148.245 8.4532 148.186 8.38272C148.127 8.31274 147.949 7.98075 147.791 7.64569C147.197 6.38567 145.175 4.01015 143.932 3.11274C143.711 2.95288 143.35 2.68117 143.129 2.50751C140.865 0.730078 136.443 -0.340466 133.179 0.0982726ZM136.228 5.96122C137.977 6.4444 139.378 7.94398 139.838 9.82508C140.05 10.6934 140.013 16.1319 139.79 16.9287C139.61 17.5737 139.398 18.0646 139.174 18.3577C138.147 19.7051 137.485 20.225 136.324 20.5963C133.97 21.3493 131.173 19.7475 130.426 17.2187C130.187 16.4097 130.054 11.2046 130.246 10.1622C130.81 7.0905 133.495 5.20582 136.228 5.96122ZM35.7583 7.50064C34.0355 7.65183 31.306 8.67845 30.3666 9.52834C30.1986 9.68055 29.9367 9.8731 29.7846 9.95584C29.2477 10.249 27.6366 12.1215 27.183 12.9795C25.8499 15.5011 25.4468 17.0079 25.4468 19.4656C25.4468 29.7849 36.9668 35.2938 44.2218 28.4441C46.6976 26.1064 46.7968 25.5875 44.854 25.1222C44.3095 24.992 43.5295 24.7918 43.1216 24.6784C42.018 24.3709 41.8279 24.3907 41.3214 24.8683C38.9265 27.1249 35.5402 27.3971 32.9508 25.5415C31.6898 24.6379 30.6282 23.2666 30.3032 22.1221L30.1972 21.7477H38.8475H47.4978L47.7568 21.4907L48.0164 21.2338L47.9711 19.5115C47.9451 18.5064 47.8783 17.559 47.8103 17.2361C47.7467 16.9318 47.6351 16.3954 47.5618 16.044C47.4146 15.3367 46.7371 13.7666 46.2951 13.1072C46.1381 12.8733 45.9874 12.6051 45.9604 12.5112C45.8651 12.1792 44.1809 10.3369 43.6228 9.95379C43.4018 9.80262 43.0865 9.56409 42.9213 9.42363C41.4817 8.20139 38.1055 7.29531 35.7583 7.50064ZM59.1102 7.6176C58.4188 7.68195 57.2648 7.97207 56.8974 8.1733C56.7726 8.24175 56.6138 8.29793 56.5439 8.29793C55.5324 8.29793 52.9757 10.8589 52.0079 12.8422C50.8278 15.259 50.7946 15.5782 50.8225 24.1599L50.8451 31.0414L51.07 31.2466C51.3598 31.5107 54.5713 31.571 54.9339 31.3192C55.2574 31.0939 55.2574 31.0934 55.2988 23.6206L55.3388 16.3423L55.5849 15.6987C55.7206 15.3448 56.0336 14.7702 56.2805 14.4218C57.0967 13.2702 57.0268 13.3335 58.1877 12.693C59.4237 12.0106 60.7526 12.0683 61.9573 12.8565C62.2755 13.0648 62.5615 13.2349 62.5924 13.2349C62.8885 13.2349 64.0657 15.1007 64.3315 15.9904C64.6617 17.0973 64.6863 17.6922 64.6869 24.5619C64.6877 31.0025 64.6897 31.0817 64.851 31.2656C65.1183 31.5699 68.4192 31.5536 68.7559 31.2466L68.9807 31.0414L69.0245 23.9046L69.0688 16.7678L69.3163 15.9592C70.8522 10.9452 76.4683 11.0366 78.1472 16.1033L78.3677 16.7678L78.4086 23.9694C78.4428 29.8998 78.4692 31.1955 78.5603 31.3115C78.7615 31.5689 82.3351 31.5184 82.5686 31.2549L82.7434 31.0582V23.9066C82.7434 15.8464 82.753 16.0088 82.1439 14.1322C81.6191 12.5147 80.3855 10.5396 79.5338 9.95226C79.3792 9.84602 79.0962 9.60801 78.9046 9.42415C77.3898 7.96747 73.9886 7.18551 71.8036 7.79177C69.9152 8.31581 68.6937 9.05027 67.399 10.4395L66.7803 11.1035L66.4361 10.675C64.7417 8.56455 61.858 7.3607 59.1102 7.6176ZM86.1354 7.59155C85.5928 7.70239 85.6323 6.77078 85.6323 19.5821V31.0991L85.8437 31.2758C86.056 31.453 89.2136 31.5567 89.6007 31.3989C89.9763 31.2462 89.9657 31.6032 89.9657 19.5345C89.9657 7.15332 89.9902 7.80454 89.515 7.61301C89.3204 7.53435 86.5009 7.51648 86.1354 7.59155ZM102.203 7.69728C101.221 7.8832 99.8052 8.35308 99.11 8.72493C98.5717 9.01248 97.7387 9.55234 97.6695 9.65858C97.6473 9.69178 97.4666 9.8261 97.2678 9.95584C97.0695 10.0861 96.5677 10.5611 96.1537 11.0116C93.4265 13.9765 92.4059 17.5007 93.0197 21.8329C93.4467 24.8454 95.884 28.4538 98.4715 29.9049C99.5458 30.5071 99.7759 30.6174 100.541 30.8968C104.527 32.3514 109.138 31.1848 112.193 27.9497C114.739 25.255 116.022 20.6515 115.215 17.1085C114.761 15.1083 114.472 14.3227 113.808 13.2778C113.6 12.9498 113.335 12.5096 113.218 12.2986C112.921 11.7568 111.517 10.3098 110.732 9.73315C108.234 7.90159 105.091 7.15129 102.203 7.69728ZM134.167 7.62271C133.252 7.85205 132.362 8.71165 132.024 9.69127L131.814 10.298V13.2778C131.814 16.1747 131.82 16.2723 132 16.8102C132.933 19.5902 136.737 19.8338 137.982 17.1933C138.346 16.4219 138.366 16.1805 138.339 13.0633L138.314 10.128L138.066 9.57481C137.366 8.01293 135.779 7.21871 134.167 7.62271ZM135.593 11.2261L135.867 11.5157V13.7185C135.867 15.6549 135.851 15.9465 135.73 16.1319C135.387 16.6595 134.952 16.7086 134.535 16.2657L134.262 15.9761V13.7456V11.5157L134.535 11.2261C134.732 11.0177 134.879 10.9365 135.064 10.9365C135.25 10.9365 135.398 11.0177 135.593 11.2261ZM12.8705 12.3784C17.761 13.7119 19.7591 19.675 16.7378 23.9184C16.1667 24.7202 15.9559 24.9286 14.938 25.6978C12.3346 27.6647 8.2786 26.9926 5.9978 24.2161C1.70346 18.989 6.54333 10.6525 12.8705 12.3784ZM38.4869 12.3834C40.5625 13.0623 42.2097 14.5593 42.9796 16.4664L43.2555 17.1509H36.7217H30.1885L30.2973 16.8234C30.5236 16.1426 31.0624 15.1824 31.4259 14.8101C31.5174 14.7161 31.672 14.5296 31.7692 14.3949C33.0129 12.6699 36.327 11.6776 38.4869 12.3834ZM105.894 12.4285C107.268 12.8507 108.033 13.3279 109.001 14.3662C113.891 19.6131 109.301 28.2705 102.508 26.6111C101.376 26.3347 100.966 26.1126 99.6637 25.0686C97.7195 23.5097 96.8215 20.389 97.509 17.5824C98.4547 13.7253 102.341 11.3364 105.894 12.4285ZM143.298 18.1213C143.448 18.2807 143.571 18.4936 143.571 18.5953C143.571 19.0753 142.714 21.3621 142.454 21.5776C142.426 21.6006 142.177 21.9264 141.9 22.3008C141.624 22.6757 141.277 23.0776 141.132 23.1946C140.984 23.3121 140.598 23.6231 140.272 23.8866C139.379 24.6079 138.558 24.9945 136.95 25.4511C134.982 26.0104 131.849 25.4138 130.138 24.1538C128.96 23.2865 127.586 21.7783 127.402 21.1515C127.367 21.0346 127.221 20.6878 127.076 20.3803C126.382 18.9089 126.493 18.1299 127.401 18.1299C127.858 18.1299 128.035 18.3138 128.251 19.012C128.347 19.3225 128.547 19.7991 128.696 20.0709C128.843 20.3425 128.966 20.5954 128.966 20.6327C128.966 20.9621 130.611 22.6011 131.309 22.9669C135.545 25.1886 140.441 23.4015 141.764 19.1514C142.179 17.8169 142.689 17.4752 143.298 18.1213Z" fill="#FFDF70"/>
<path fill-rule="evenodd" clip-rule="evenodd" d="M18.3373 0.219833C18.1914 0.390936 18.1832 0.615155 18.1625 5.15679C18.149 8.04153 18.1104 9.91498 18.0652 9.91498C18.0238 9.91498 17.9251 9.84296 17.8462 9.75511C17.682 9.57125 16.8273 9.00839 16.2082 8.67537C14.5658 7.79279 11.7563 7.32954 9.77553 7.61505C8.34118 7.82139 5.84133 8.76527 5.26451 9.31739C5.17639 9.40218 4.85139 9.64377 4.54228 9.85471C4.00447 10.2214 2.17483 12.1015 2.17483 12.287C2.17483 12.335 1.97067 12.6904 1.72078 13.077C0.975451 14.2319 0.64419 15.1038 0.189669 17.1085C-0.166147 18.6781 -0.011591 21.2456 0.571486 23.4499C0.79345 24.2902 1.85127 26.3873 2.1103 26.5007C2.14593 26.516 2.17483 26.5687 2.17483 26.6171C2.17483 26.916 3.62553 28.4666 4.66265 29.2761C7.46634 31.4653 11.7434 32.1185 14.9833 30.8523C15.8518 30.5133 17.42 29.6638 17.8125 29.3201L18.1042 29.0642L18.1442 30.0387C18.1808 30.9218 18.2025 31.0337 18.3787 31.2323L18.5732 31.452H20.3561C21.9917 31.452 22.1545 31.4387 22.3283 31.289L22.5175 31.1266V16.6933C22.5175 3.9749 22.5036 2.24549 22.3972 2.1367C22.3312 2.06877 22.024 1.87161 21.7153 1.69795C21.4062 1.5243 21.0812 1.31541 20.9932 1.23317C19.9637 0.277037 18.6998 -0.205114 18.3373 0.219833ZM85.7647 0.196338C85.6515 0.329135 85.6323 0.577362 85.6323 1.87978C85.6323 3.62095 85.6265 3.60206 86.292 4.05101C86.525 4.20832 86.784 4.40291 86.8673 4.48361C86.9511 4.56431 87.2222 4.74053 87.4691 4.87486C87.7166 5.00918 88.1654 5.29826 88.4659 5.51687C89.1847 6.03937 89.6108 6.0547 89.8482 5.56744C90.0243 5.20582 90.0201 0.654997 89.8428 0.291849L89.7205 0.0405579H87.8091C86.0593 0.0405579 85.8865 0.0538376 85.7647 0.196338ZM133.179 0.0982726C132.039 0.2515 130.112 0.865937 129.143 1.38487C128.891 1.52022 128.586 1.6571 128.465 1.68825C128.207 1.75618 126.674 2.83847 125.885 3.51165C124.85 4.39423 123.173 6.35911 122.787 7.14158C122.517 7.68706 122.127 8.38425 122.07 8.42204C121.968 8.48845 121.208 10.4344 121.021 11.1071C120.298 13.7002 120.299 13.6879 120.299 21.6056V28.465L120.492 29.031C120.599 29.3425 120.774 29.6985 120.879 29.8222C120.985 29.9463 121.13 30.147 121.201 30.269C121.386 30.5847 122.165 31.1098 122.725 31.2946C123.38 31.5107 135.337 31.5347 136.75 31.3223C139.012 30.9826 141.809 29.8298 143.37 28.5933C143.635 28.3833 143.925 28.1791 144.014 28.1392C144.103 28.0989 144.513 27.7265 144.926 27.3118C145.339 26.8966 145.709 26.5441 145.748 26.5283C145.787 26.5125 146.099 26.131 146.44 25.6805C146.783 25.2299 147.138 24.7723 147.234 24.664C147.327 24.5558 147.538 24.1906 147.702 23.8525C147.866 23.5138 148.048 23.1798 148.108 23.1093C148.166 23.0383 148.391 22.5782 148.609 22.0863C150.232 18.3991 150.288 13.3626 148.748 9.61619C148.498 9.00787 148.245 8.4532 148.186 8.38272C148.127 8.31274 147.949 7.98075 147.791 7.64569C147.197 6.38567 145.175 4.01015 143.932 3.11274C143.711 2.95288 143.35 2.68117 143.129 2.50751C140.865 0.730078 136.443 -0.340466 133.179 0.0982726ZM136.228 5.96122C137.977 6.4444 139.378 7.94398 139.838 9.82508C140.05 10.6934 140.013 16.1319 139.79 16.9287C139.61 17.5737 139.398 18.0646 139.174 18.3577C138.147 19.7051 137.485 20.225 136.324 20.5963C133.97 21.3493 131.173 19.7475 130.426 17.2187C130.187 16.4097 130.054 11.2046 130.246 10.1622C130.81 7.0905 133.495 5.20582 136.228 5.96122ZM35.7583 7.50064C34.0355 7.65183 31.306 8.67845 30.3666 9.52834C30.1986 9.68055 29.9367 9.8731 29.7846 9.95584C29.2477 10.249 27.6366 12.1215 27.183 12.9795C25.8499 15.5011 25.4468 17.0079 25.4468 19.4656C25.4468 29.7849 36.9668 35.2938 44.2218 28.4441C46.6976 26.1064 46.7968 25.5875 44.854 25.1222C44.3095 24.992 43.5295 24.7918 43.1216 24.6784C42.018 24.3709 41.8279 24.3907 41.3214 24.8683C38.9265 27.1249 35.5402 27.3971 32.9508 25.5415C31.6898 24.6379 30.6282 23.2666 30.3032 22.1221L30.1972 21.7477H38.8475H47.4978L47.7568 21.4907L48.0164 21.2338L47.9711 19.5115C47.9451 18.5064 47.8783 17.559 47.8103 17.2361C47.7467 16.9318 47.6351 16.3954 47.5618 16.044C47.4146 15.3367 46.7371 13.7666 46.2951 13.1072C46.1381 12.8733 45.9874 12.6051 45.9604 12.5112C45.8651 12.1792 44.1809 10.3369 43.6228 9.95379C43.4018 9.80262 43.0865 9.56409 42.9213 9.42363C41.4817 8.20139 38.1055 7.29531 35.7583 7.50064ZM59.1102 7.6176C58.4188 7.68195 57.2648 7.97207 56.8974 8.1733C56.7726 8.24175 56.6138 8.29793 56.5439 8.29793C55.5324 8.29793 52.9757 10.8589 52.0079 12.8422C50.8278 15.259 50.7946 15.5782 50.8225 24.1599L50.8451 31.0414L51.07 31.2466C51.3598 31.5107 54.5713 31.571 54.9339 31.3192C55.2574 31.0939 55.2574 31.0934 55.2988 23.6206L55.3388 16.3423L55.5849 15.6987C55.7206 15.3448 56.0336 14.7702 56.2805 14.4218C57.0967 13.2702 57.0268 13.3335 58.1877 12.693C59.4237 12.0106 60.7526 12.0683 61.9573 12.8565C62.2755 13.0648 62.5615 13.2349 62.5924 13.2349C62.8885 13.2349 64.0657 15.1007 64.3315 15.9904C64.6617 17.0973 64.6863 17.6922 64.6869 24.5619C64.6877 31.0025 64.6897 31.0817 64.851 31.2656C65.1183 31.5699 68.4192 31.5536 68.7559 31.2466L68.9807 31.0414L69.0245 23.9046L69.0688 16.7678L69.3163 15.9592C70.8522 10.9452 76.4683 11.0366 78.1472 16.1033L78.3677 16.7678L78.4086 23.9694C78.4428 29.8998 78.4692 31.1955 78.5603 31.3115C78.7615 31.5689 82.3351 31.5184 82.5686 31.2549L82.7434 31.0582V23.9066C82.7434 15.8464 82.753 16.0088 82.1439 14.1322C81.6191 12.5147 80.3855 10.5396 79.5338 9.95226C79.3792 9.84602 79.0962 9.60801 78.9046 9.42415C77.3898 7.96747 73.9886 7.18551 71.8036 7.79177C69.9152 8.31581 68.6937 9.05027 67.399 10.4395L66.7803 11.1035L66.4361 10.675C64.7417 8.56455 61.858 7.3607 59.1102 7.6176ZM86.1354 7.59155C85.5928 7.70239 85.6323 6.77078 85.6323 19.5821V31.0991L85.8437 31.2758C86.056 31.453 89.2136 31.5567 89.6007 31.3989C89.9763 31.2462 89.9657 31.6032 89.9657 19.5345C89.9657 7.15332 89.9902 7.80454 89.515 7.61301C89.3204 7.53435 86.5009 7.51648 86.1354 7.59155ZM102.203 7.69728C101.221 7.8832 99.8052 8.35308 99.11 8.72493C98.5717 9.01248 97.7387 9.55234 97.6695 9.65858C97.6473 9.69178 97.4666 9.8261 97.2678 9.95584C97.0695 10.0861 96.5677 10.5611 96.1537 11.0116C93.4265 13.9765 92.4059 17.5007 93.0197 21.8329C93.4467 24.8454 95.884 28.4538 98.4715 29.9049C99.5458 30.5071 99.7759 30.6174 100.541 30.8968C104.527 32.3514 109.138 31.1848 112.193 27.9497C114.739 25.255 116.022 20.6515 115.215 17.1085C114.761 15.1083 114.472 14.3227 113.808 13.2778C113.6 12.9498 113.335 12.5096 113.218 12.2986C112.921 11.7568 111.517 10.3098 110.732 9.73315C108.234 7.90159 105.091 7.15129 102.203 7.69728ZM134.167 7.62271C133.252 7.85205 132.362 8.71165 132.024 9.69127L131.814 10.298V13.2778C131.814 16.1747 131.82 16.2723 132 16.8102C132.933 19.5902 136.737 19.8338 137.982 17.1933C138.346 16.4219 138.366 16.1805 138.339 13.0633L138.314 10.128L138.066 9.57481C137.366 8.01293 135.779 7.21871 134.167 7.62271ZM135.593 11.2261L135.867 11.5157V13.7185C135.867 15.6549 135.851 15.9465 135.73 16.1319C135.387 16.6595 134.952 16.7086 134.535 16.2657L134.262 15.9761V13.7456V11.5157L134.535 11.2261C134.732 11.0177 134.879 10.9365 135.064 10.9365C135.25 10.9365 135.398 11.0177 135.593 11.2261ZM12.8705 12.3784C17.761 13.7119 19.7591 19.675 16.7378 23.9184C16.1667 24.7202 15.9559 24.9286 14.938 25.6978C12.3346 27.6647 8.2786 26.9926 5.9978 24.2161C1.70346 18.989 6.54333 10.6525 12.8705 12.3784ZM38.4869 12.3834C40.5625 13.0623 42.2097 14.5593 42.9796 16.4664L43.2555 17.1509H36.7217H30.1885L30.2973 16.8234C30.5236 16.1426 31.0624 15.1824 31.4259 14.8101C31.5174 14.7161 31.672 14.5296 31.7692 14.3949C33.0129 12.6699 36.327 11.6776 38.4869 12.3834ZM105.894 12.4285C107.268 12.8507 108.033 13.3279 109.001 14.3662C113.891 19.6131 109.301 28.2705 102.508 26.6111C101.376 26.3347 100.966 26.1126 99.6637 25.0686C97.7195 23.5097 96.8215 20.389 97.509 17.5824C98.4547 13.7253 102.341 11.3364 105.894 12.4285ZM143.298 18.1213C143.448 18.2807 143.571 18.4936 143.571 18.5953C143.571 19.0753 142.714 21.3621 142.454 21.5776C142.426 21.6006 142.177 21.9264 141.9 22.3008C141.624 22.6757 141.277 23.0776 141.132 23.1946C140.984 23.3121 140.598 23.6231 140.272 23.8866C139.379 24.6079 138.558 24.9945 136.95 25.4511C134.982 26.0104 131.849 25.4138 130.138 24.1538C128.96 23.2865 127.586 21.7783 127.402 21.1515C127.367 21.0346 127.221 20.6878 127.076 20.3803C126.382 18.9089 126.493 18.1299 127.401 18.1299C127.858 18.1299 128.035 18.3138 128.251 19.012C128.347 19.3225 128.547 19.7991 128.696 20.0709C128.843 20.3425 128.966 20.5954 128.966 20.6327C128.966 20.9621 130.611 22.6011 131.309 22.9669C135.545 25.1886 140.441 23.4015 141.764 19.1514C142.179 17.8169 142.689 17.4752 143.298 18.1213Z" fill="#FFDF70"/>
<path fill-rule="evenodd" clip-rule="evenodd" d="M18.3373 0.219833C18.1914 0.390936 18.1832 0.615155 18.1625 5.15679C18.149 8.04153 18.1104 9.91498 18.0652 9.91498C18.0238 9.91498 17.9251 9.84296 17.8462 9.75511C17.682 9.57125 16.8273 9.00839 16.2082 8.67537C14.5658 7.79279 11.7563 7.32954 9.77553 7.61505C8.34118 7.82139 5.84133 8.76527 5.26451 9.31739C5.17639 9.40218 4.85139 9.64377 4.54228 9.85471C4.00447 10.2214 2.17483 12.1015 2.17483 12.287C2.17483 12.335 1.97067 12.6904 1.72078 13.077C0.975451 14.2319 0.64419 15.1038 0.189669 17.1085C-0.166147 18.6781 -0.011591 21.2456 0.571486 23.4499C0.79345 24.2902 1.85127 26.3873 2.1103 26.5007C2.14593 26.516 2.17483 26.5687 2.17483 26.6171C2.17483 26.916 3.62553 28.4666 4.66265 29.2761C7.46634 31.4653 11.7434 32.1185 14.9833 30.8523C15.8518 30.5133 17.42 29.6638 17.8125 29.3201L18.1042 29.0642L18.1442 30.0387C18.1808 30.9218 18.2025 31.0337 18.3787 31.2323L18.5732 31.452H20.3561C21.9917 31.452 22.1545 31.4387 22.3283 31.289L22.5175 31.1266V16.6933C22.5175 3.9749 22.5036 2.24549 22.3972 2.1367C22.3312 2.06877 22.024 1.87161 21.7153 1.69795C21.4062 1.5243 21.0812 1.31541 20.9932 1.23317C19.9637 0.277037 18.6998 -0.205114 18.3373 0.219833ZM85.7647 0.196338C85.6515 0.329135 85.6323 0.577362 85.6323 1.87978C85.6323 3.62095 85.6265 3.60206 86.292 4.05101C86.525 4.20832 86.784 4.40291 86.8673 4.48361C86.9511 4.56431 87.2222 4.74053 87.4691 4.87486C87.7166 5.00918 88.1654 5.29826 88.4659 5.51687C89.1847 6.03937 89.6108 6.0547 89.8482 5.56744C90.0243 5.20582 90.0201 0.654997 89.8428 0.291849L89.7205 0.0405579H87.8091C86.0593 0.0405579 85.8865 0.0538376 85.7647 0.196338ZM133.179 0.0982726C132.039 0.2515 130.112 0.865937 129.143 1.38487C128.891 1.52022 128.586 1.6571 128.465 1.68825C128.207 1.75618 126.674 2.83847 125.885 3.51165C124.85 4.39423 123.173 6.35911 122.787 7.14158C122.517 7.68706 122.127 8.38425 122.07 8.42204C121.968 8.48845 121.208 10.4344 121.021 11.1071C120.298 13.7002 120.299 13.6879 120.299 21.6056V28.465L120.492 29.031C120.599 29.3425 120.774 29.6985 120.879 29.8222C120.985 29.9463 121.13 30.147 121.201 30.269C121.386 30.5847 122.165 31.1098 122.725 31.2946C123.38 31.5107 135.337 31.5347 136.75 31.3223C139.012 30.9826 141.809 29.8298 143.37 28.5933C143.635 28.3833 143.925 28.1791 144.014 28.1392C144.103 28.0989 144.513 27.7265 144.926 27.3118C145.339 26.8966 145.709 26.5441 145.748 26.5283C145.787 26.5125 146.099 26.131 146.44 25.6805C146.783 25.2299 147.138 24.7723 147.234 24.664C147.327 24.5558 147.538 24.1906 147.702 23.8525C147.866 23.5138 148.048 23.1798 148.108 23.1093C148.166 23.0383 148.391 22.5782 148.609 22.0863C150.232 18.3991 150.288 13.3626 148.748 9.61619C148.498 9.00787 148.245 8.4532 148.186 8.38272C148.127 8.31274 147.949 7.98075 147.791 7.64569C147.197 6.38567 145.175 4.01015 143.932 3.11274C143.711 2.95288 143.35 2.68117 143.129 2.50751C140.865 0.730078 136.443 -0.340466 133.179 0.0982726ZM136.228 5.96122C137.977 6.4444 139.378 7.94398 139.838 9.82508C140.05 10.6934 140.013 16.1319 139.79 16.9287C139.61 17.5737 139.398 18.0646 139.174 18.3577C138.147 19.7051 137.485 20.225 136.324 20.5963C133.97 21.3493 131.173 19.7475 130.426 17.2187C130.187 16.4097 130.054 11.2046 130.246 10.1622C130.81 7.0905 133.495 5.20582 136.228 5.96122ZM35.7583 7.50064C34.0355 7.65183 31.306 8.67845 30.3666 9.52834C30.1986 9.68055 29.9367 9.8731 29.7846 9.95584C29.2477 10.249 27.6366 12.1215 27.183 12.9795C25.8499 15.5011 25.4468 17.0079 25.4468 19.4656C25.4468 29.7849 36.9668 35.2938 44.2218 28.4441C46.6976 26.1064 46.7968 25.5875 44.854 25.1222C44.3095 24.992 43.5295 24.7918 43.1216 24.6784C42.018 24.3709 41.8279 24.3907 41.3214 24.8683C38.9265 27.1249 35.5402 27.3971 32.9508 25.5415C31.6898 24.6379 30.6282 23.2666 30.3032 22.1221L30.1972 21.7477H38.8475H47.4978L47.7568 21.4907L48.0164 21.2338L47.9711 19.5115C47.9451 18.5064 47.8783 17.559 47.8103 17.2361C47.7467 16.9318 47.6351 16.3954 47.5618 16.044C47.4146 15.3367 46.7371 13.7666 46.2951 13.1072C46.1381 12.8733 45.9874 12.6051 45.9604 12.5112C45.8651 12.1792 44.1809 10.3369 43.6228 9.95379C43.4018 9.80262 43.0865 9.56409 42.9213 9.42363C41.4817 8.20139 38.1055 7.29531 35.7583 7.50064ZM59.1102 7.6176C58.4188 7.68195 57.2648 7.97207 56.8974 8.1733C56.7726 8.24175 56.6138 8.29793 56.5439 8.29793C55.5324 8.29793 52.9757 10.8589 52.0079 12.8422C50.8278 15.259 50.7946 15.5782 50.8225 24.1599L50.8451 31.0414L51.07 31.2466C51.3598 31.5107 54.5713 31.571 54.9339 31.3192C55.2574 31.0939 55.2574 31.0934 55.2988 23.6206L55.3388 16.3423L55.5849 15.6987C55.7206 15.3448 56.0336 14.7702 56.2805 14.4218C57.0967 13.2702 57.0268 13.3335 58.1877 12.693C59.4237 12.0106 60.7526 12.0683 61.9573 12.8565C62.2755 13.0648 62.5615 13.2349 62.5924 13.2349C62.8885 13.2349 64.0657 15.1007 64.3315 15.9904C64.6617 17.0973 64.6863 17.6922 64.6869 24.5619C64.6877 31.0025 64.6897 31.0817 64.851 31.2656C65.1183 31.5699 68.4192 31.5536 68.7559 31.2466L68.9807 31.0414L69.0245 23.9046L69.0688 16.7678L69.3163 15.9592C70.8522 10.9452 76.4683 11.0366 78.1472 16.1033L78.3677 16.7678L78.4086 23.9694C78.4428 29.8998 78.4692 31.1955 78.5603 31.3115C78.7615 31.5689 82.3351 31.5184 82.5686 31.2549L82.7434 31.0582V23.9066C82.7434 15.8464 82.753 16.0088 82.1439 14.1322C81.6191 12.5147 80.3855 10.5396 79.5338 9.95226C79.3792 9.84602 79.0962 9.60801 78.9046 9.42415C77.3898 7.96747 73.9886 7.18551 71.8036 7.79177C69.9152 8.31581 68.6937 9.05027 67.399 10.4395L66.7803 11.1035L66.4361 10.675C64.7417 8.56455 61.858 7.3607 59.1102 7.6176ZM86.1354 7.59155C85.5928 7.70239 85.6323 6.77078 85.6323 19.5821V31.0991L85.8437 31.2758C86.056 31.453 89.2136 31.5567 89.6007 31.3989C89.9763 31.2462 89.9657 31.6032 89.9657 19.5345C89.9657 7.15332 89.9902 7.80454 89.515 7.61301C89.3204 7.53435 86.5009 7.51648 86.1354 7.59155ZM102.203 7.69728C101.221 7.8832 99.8052 8.35308 99.11 8.72493C98.5717 9.01248 97.7387 9.55234 97.6695 9.65858C97.6473 9.69178 97.4666 9.8261 97.2678 9.95584C97.0695 10.0861 96.5677 10.5611 96.1537 11.0116C93.4265 13.9765 92.4059 17.5007 93.0197 21.8329C93.4467 24.8454 95.884 28.4538 98.4715 29.9049C99.5458 30.5071 99.7759 30.6174 100.541 30.8968C104.527 32.3514 109.138 31.1848 112.193 27.9497C114.739 25.255 116.022 20.6515 115.215 17.1085C114.761 15.1083 114.472 14.3227 113.808 13.2778C113.6 12.9498 113.335 12.5096 113.218 12.2986C112.921 11.7568 111.517 10.3098 110.732 9.73315C108.234 7.90159 105.091 7.15129 102.203 7.69728ZM134.167 7.62271C133.252 7.85205 132.362 8.71165 132.024 9.69127L131.814 10.298V13.2778C131.814 16.1747 131.82 16.2723 132 16.8102C132.933 19.5902 136.737 19.8338 137.982 17.1933C138.346 16.4219 138.366 16.1805 138.339 13.0633L138.314 10.128L138.066 9.57481C137.366 8.01293 135.779 7.21871 134.167 7.62271ZM135.593 11.2261L135.867 11.5157V13.7185C135.867 15.6549 135.851 15.9465 135.73 16.1319C135.387 16.6595 134.952 16.7086 134.535 16.2657L134.262 15.9761V13.7456V11.5157L134.535 11.2261C134.732 11.0177 134.879 10.9365 135.064 10.9365C135.25 10.9365 135.398 11.0177 135.593 11.2261ZM12.8705 12.3784C17.761 13.7119 19.7591 19.675 16.7378 23.9184C16.1667 24.7202 15.9559 24.9286 14.938 25.6978C12.3346 27.6647 8.2786 26.9926 5.9978 24.2161C1.70346 18.989 6.54333 10.6525 12.8705 12.3784ZM38.4869 12.3834C40.5625 13.0623 42.2097 14.5593 42.9796 16.4664L43.2555 17.1509H36.7217H30.1885L30.2973 16.8234C30.5236 16.1426 31.0624 15.1824 31.4259 14.8101C31.5174 14.7161 31.672 14.5296 31.7692 14.3949C33.0129 12.6699 36.327 11.6776 38.4869 12.3834ZM105.894 12.4285C107.268 12.8507 108.033 13.3279 109.001 14.3662C113.891 19.6131 109.301 28.2705 102.508 26.6111C101.376 26.3347 100.966 26.1126 99.6637 25.0686C97.7195 23.5097 96.8215 20.389 97.509 17.5824C98.4547 13.7253 102.341 11.3364 105.894 12.4285ZM143.298 18.1213C143.448 18.2807 143.571 18.4936 143.571 18.5953C143.571 19.0753 142.714 21.3621 142.454 21.5776C142.426 21.6006 142.177 21.9264 141.9 22.3008C141.624 22.6757 141.277 23.0776 141.132 23.1946C140.984 23.3121 140.598 23.6231 140.272 23.8866C139.379 24.6079 138.558 24.9945 136.95 25.4511C134.982 26.0104 131.849 25.4138 130.138 24.1538C128.96 23.2865 127.586 21.7783 127.402 21.1515C127.367 21.0346 127.221 20.6878 127.076 20.3803C126.382 18.9089 126.493 18.1299 127.401 18.1299C127.858 18.1299 128.035 18.3138 128.251 19.012C128.347 19.3225 128.547 19.7991 128.696 20.0709C128.843 20.3425 128.966 20.5954 128.966 20.6327C128.966 20.9621 130.611 22.6011 131.309 22.9669C135.545 25.1886 140.441 23.4015 141.764 19.1514C142.179 17.8169 142.689 17.4752 143.298 18.1213Z" fill="#FFDF70"/>
</g>
<defs>
<clipPath id="clip0">
<rect width="150" height="32" fill="white"/>
</clipPath>
</defs>
</svg>