<svg width="150" height="32" viewBox="0 0 150 32" fill="none" xmlns="http://www.w3.org/2000/svg">
<g clip-path="url(#clip0)">
<path d="M11.1245 17.4663L20.0153 31.5059C20.1204 31.6666 20.265 31.797 20.4349 31.8845C20.6049 31.9719 20.7945 32.0135 20.9851 32.0051H24.2789C24.4275 32.0069 24.575 31.9787 24.7127 31.9222C24.8504 31.8658 24.9755 31.7822 25.0807 31.6764C25.1859 31.5706 25.2691 31.4446 25.3254 31.306C25.3817 31.1674 25.4101 31.0188 25.4086 30.869V1.13612C25.4064 0.898992 25.3314 0.668385 25.1939 0.475918C25.0566 0.28345 24.8634 0.138549 24.6411 0.061087C24.4187 -0.0163748 24.178 -0.022604 23.952 0.0432537C23.726 0.109111 23.5258 0.24383 23.3787 0.428936L11.1245 16.1014C10.9917 16.3038 10.9209 16.5411 10.9209 16.7838C10.9209 17.0265 10.9917 17.2638 11.1245 17.4663Z" fill="#FFDF70"/>
<path d="M1.1297 32.0004H6.99503C7.14365 32.0022 7.29112 31.974 7.42879 31.9176C7.56646 31.8611 7.69158 31.7775 7.7968 31.6717C7.90201 31.5659 7.98523 31.44 8.0415 31.3013C8.09785 31.1627 8.12618 31.0141 8.12475 30.8643V23.3244C8.12118 23.0876 8.04515 22.8577 7.90723 22.666C7.76929 22.4743 7.57606 22.33 7.35387 22.2531C7.13168 22.176 6.89134 22.1699 6.66558 22.2356C6.43982 22.3012 6.23963 22.4354 6.09227 22.6199L0.226947 30.1597C0.101749 30.3303 0.0256235 30.5324 0.00693363 30.7437C-0.0117562 30.9551 0.027713 31.1676 0.121005 31.3578C0.214297 31.548 0.357801 31.7086 0.535752 31.822C0.713701 31.9354 0.919211 31.9972 1.1297 32.0004Z" fill="#FFDF70"/>
<path d="M105.89 15.0483C105.824 14.9655 105.75 14.8882 105.671 14.8169L105.55 14.7129L105.488 14.6583C105.209 14.4211 104.905 14.2138 104.583 14.0395C104.233 13.8284 103.863 13.6542 103.479 13.5195C103.086 13.3778 102.681 13.2699 102.269 13.1971C101.206 13.0066 100.114 13.0626 99.0762 13.3609C98.4556 13.5378 97.8595 13.7919 97.3016 14.1175C96.7532 14.4413 96.2476 14.8345 95.7976 15.2875C95.3492 15.7444 94.954 16.2511 94.619 16.798C94.2786 17.3488 94.0183 17.9459 93.8452 18.5711C93.4794 19.8643 93.4794 21.2351 93.8452 22.5283C94.0222 23.1511 94.2825 23.7468 94.619 24.2988C94.954 24.8457 95.3492 25.3524 95.7976 25.8094C96.25 26.2629 96.7563 26.6569 97.3063 26.9819C97.8659 27.2982 98.4587 27.5511 99.0738 27.7359C100.138 28.0562 101.263 28.1124 102.355 27.8997C102.774 27.8299 103.184 27.7121 103.577 27.5487C103.954 27.3937 104.318 27.2103 104.668 27.0002C105.015 26.7915 105.35 26.5615 105.669 26.3111C105.76 26.2305 105.847 26.1437 105.927 26.0512L105.968 26.0044C106.044 25.9125 106.102 25.8065 106.138 25.6924L106.154 25.5988C106.162 25.449 106.127 25.3001 106.053 25.1698L106.017 25.1126C105.989 25.0666 105.957 25.0231 105.921 24.9826L105.826 24.8526C105.635 24.5926 105.455 24.3326 105.261 24.0934C105.179 23.9985 105.077 23.9238 104.962 23.8751C104.848 23.836 104.723 23.836 104.609 23.8751C104.444 23.9488 104.295 24.0519 104.167 24.1792L103.998 24.3248C103.829 24.4652 103.74 24.5562 103.505 24.7226C103.294 24.8849 103.065 25.0235 102.824 25.136C102.563 25.2697 102.287 25.3676 102.001 25.4272C101.06 25.6326 100.079 25.5287 99.2 25.1308C98.6349 24.8744 98.1222 24.5158 97.6857 24.0726C97.2381 23.6196 96.8802 23.0849 96.6309 22.4971C96.3659 21.9005 96.2286 21.2542 96.2286 20.6004C96.2286 19.9467 96.3659 19.3003 96.6309 18.7038C96.8825 18.1129 97.2389 17.5736 97.6833 17.1126C98.1254 16.6667 98.6389 16.2992 99.2024 16.0259C100.018 15.6355 100.939 15.5259 101.823 15.7139C102.119 15.7822 102.409 15.8743 102.69 15.9895C102.958 16.1041 103.217 16.2397 103.463 16.3951C103.979 16.7018 104.562 17.5806 105.127 16.8838L105.944 15.7763C105.983 15.7232 106.01 15.6629 106.025 15.5991C106.04 15.5352 106.041 15.469 106.03 15.4044C106.016 15.2754 105.967 15.1524 105.89 15.0483Z" fill="#FFDF70"/>
<path d="M55.5942 26.834L46.6492 6.31784C46.5892 6.1655 46.4855 6.03466 46.3513 5.94203C46.2171 5.84941 46.0586 5.79921 45.896 5.79786H44.462C44.3016 5.79721 44.1447 5.84455 44.0111 5.93388C43.8774 6.02321 43.7732 6.15051 43.7113 6.29964L34.7483 26.8105C34.6867 26.936 34.659 27.0756 34.6681 27.2153C34.6771 27.355 34.7226 27.4898 34.7999 27.6061C34.873 27.7249 34.9752 27.8228 35.0968 27.8901C35.2183 27.9576 35.355 27.9923 35.4937 27.9909H36.8169C36.9782 27.9942 37.1365 27.948 37.271 27.8584C37.4056 27.7687 37.5099 27.6399 37.5701 27.4891L39.7212 22.427H50.5929L52.7312 27.4891C52.7913 27.6419 52.8955 27.773 53.0301 27.8656C53.1648 27.9583 53.3239 28.0083 53.4869 28.0091H54.7766C54.9103 28.0176 55.044 27.9924 55.1657 27.9356C55.2873 27.8789 55.3929 27.7924 55.473 27.6841C55.5672 27.5665 55.6282 27.4255 55.6496 27.2758C55.6709 27.1262 55.6518 26.9735 55.5942 26.834ZM40.8664 19.8141L40.9025 19.7335L45.2125 9.62236L49.5355 19.8141H40.8664Z" fill="#FFDF70"/>
<path d="M137.494 18.2596C137.272 17.4656 136.924 16.7132 136.463 16.0314C136.123 15.5726 135.732 15.1547 135.297 14.786C134.885 14.4163 134.417 14.1144 133.912 13.8916C133.418 13.6432 132.9 13.4497 132.364 13.3144C131.169 13.0176 129.917 13.0419 128.733 13.3847C128.125 13.5548 127.544 13.8085 127.005 14.1386C126.471 14.4733 125.979 14.8694 125.537 15.319C125.103 15.7682 124.734 16.2777 124.444 16.8321C124.134 17.3967 123.898 17.9987 123.74 18.6235C123.463 19.6184 123.409 20.6624 123.579 21.681C123.624 22.0791 123.7 22.4729 123.806 22.8588C124.029 23.6545 124.377 24.4087 124.838 25.0921C125.178 25.5502 125.569 25.9672 126.004 26.3349C126.417 26.7052 126.886 27.0078 127.391 27.2319C127.885 27.4807 128.404 27.6734 128.939 27.8065C130.763 28.2559 132.689 27.9596 134.296 26.9823C134.829 26.6484 135.321 26.2531 135.764 25.8045C136.186 25.3732 136.541 24.8807 136.819 24.3434L136.842 24.2914C136.894 24.2207 136.925 24.1368 136.933 24.049C136.94 23.9612 136.923 23.8732 136.883 23.7948C136.851 23.7352 136.804 23.6851 136.746 23.6495C136.689 23.6139 136.623 23.5941 136.556 23.592H134.417C134.328 23.5899 134.238 23.6087 134.156 23.647C134.075 23.6853 134.002 23.7421 133.945 23.813C133.676 24.1423 133.362 24.4312 133.012 24.671C132.637 24.9122 132.23 25.097 131.802 25.2196C130.853 25.4966 129.842 25.4676 128.911 25.1364C128.415 24.9548 127.948 24.6989 127.529 24.3772C127.12 24.0504 126.781 23.6447 126.53 23.1838C126.311 22.6856 126.156 22.1614 126.068 21.6238L126.056 21.5563H126.128L137.116 21.5328C137.567 21.5328 137.822 21.252 137.822 20.7528C137.852 19.9092 137.741 19.0664 137.494 18.2596ZM135.156 19.2397L126.264 19.2813L126.287 19.2059C126.436 18.6999 126.657 18.2188 126.945 17.7785C127.297 17.2559 127.743 16.8051 128.261 16.45C128.638 16.206 129.049 16.0194 129.481 15.8962C130.429 15.6191 131.44 15.6482 132.372 15.9794C132.868 16.1609 133.334 16.4168 133.755 16.7385C134.165 17.0672 134.506 17.4756 134.756 17.9397C134.973 18.3224 135.129 18.7375 135.217 19.1695L135.233 19.2397H135.156Z" fill="#FFDF70"/>
<path d="M71.3795 25.7916C71.8222 25.3349 72.2108 24.828 72.5376 24.281C72.861 23.7188 73.1132 23.1178 73.2882 22.4923C73.652 21.1996 73.652 19.8305 73.2882 18.5377C73.1132 17.9122 72.861 17.3113 72.5376 16.749C71.8901 15.6387 70.9721 14.7133 69.8706 14.0607C69.319 13.7386 68.731 13.4846 68.1193 13.3041C66.5412 12.8437 64.8536 12.9503 63.345 13.6057C62.71 13.8969 62.1174 14.2738 61.5833 14.7263L61.4879 14.8069V14.0061C61.499 13.9069 61.4878 13.8064 61.4551 13.7121C61.4223 13.6178 61.3688 13.5323 61.2986 13.4617C61.2284 13.3913 61.1433 13.3377 61.0497 13.3049C60.9561 13.2722 60.8563 13.2613 60.7579 13.2729H59.6334C59.5339 13.2609 59.4332 13.2714 59.3382 13.3037C59.2434 13.336 59.1568 13.3891 59.0849 13.4593C59.013 13.5296 58.9575 13.6151 58.9226 13.7097C58.8876 13.8043 58.874 13.9055 58.8828 14.0061V31.2645C58.8797 31.36 58.8957 31.4551 58.9297 31.5442C58.9639 31.6334 59.0155 31.7147 59.0814 31.7833C59.1474 31.8521 59.2263 31.9066 59.3136 31.9438C59.4009 31.9811 59.4947 32.0003 59.5895 32.0002H60.7373C60.9392 32.0063 61.1355 31.9326 61.2841 31.7949C61.3513 31.7266 61.4039 31.6453 61.4389 31.5559C61.4739 31.4665 61.4906 31.3709 61.4879 31.2749V26.2309L61.5833 26.3116C62.1098 26.7584 62.6958 27.1285 63.3243 27.4113C64.8321 28.0665 66.5189 28.1732 68.0961 27.7129C68.7166 27.5365 69.3128 27.2823 69.8706 26.9564C70.4215 26.6356 70.9286 26.2441 71.3795 25.7916ZM67.9671 25.0688C67.3959 25.3367 66.7735 25.4755 66.1435 25.4755C65.5135 25.4755 64.8912 25.3367 64.32 25.0688C63.7464 24.8085 63.2313 24.4335 62.8059 23.9665C62.369 23.5045 62.0194 22.9662 61.7742 22.3779C61.5266 21.7821 61.399 21.1427 61.399 20.4968C61.399 19.8509 61.5266 19.2115 61.7742 18.6157C62.0232 18.038 62.3726 17.5097 62.8059 17.0558C63.2396 16.6036 63.753 16.2368 64.32 15.9742C64.8909 15.7071 65.5128 15.5687 66.1422 15.5687C66.7716 15.5687 67.3935 15.7071 67.9645 15.9742C68.5232 16.2396 69.0292 16.6052 69.4579 17.0532C69.8841 17.5086 70.2264 18.0369 70.469 18.6132C70.718 19.2081 70.8462 19.8473 70.8462 20.4929C70.8462 21.1386 70.718 21.7777 70.469 22.3727C70.2216 22.9579 69.8789 23.4974 69.4554 23.969C69.0347 24.4294 68.5293 24.8029 67.9671 25.0688Z" fill="#FFDF70"/>
<path d="M78.4649 13.2933H77.3404C77.2398 13.281 77.1377 13.2917 77.0418 13.3247C76.9459 13.3577 76.8586 13.4121 76.7864 13.4838C76.7143 13.5556 76.6591 13.6428 76.6251 13.739C76.591 13.8352 76.579 13.938 76.5898 14.0395V31.2745C76.5875 31.3705 76.6044 31.466 76.6394 31.5553C76.6744 31.6446 76.7268 31.726 76.7936 31.7945C76.8596 31.8608 76.9381 31.9131 77.0244 31.9484C77.1109 31.9837 77.2033 32.0012 77.2965 31.9999H78.4418C78.6437 32.006 78.8398 31.9322 78.9886 31.7945C79.0562 31.7266 79.1091 31.6453 79.1442 31.5559C79.1793 31.4665 79.1956 31.3706 79.1923 31.2745V26.2306L79.2878 26.3112C79.8151 26.7585 80.4016 27.1288 81.0318 27.4109C82.5389 28.0664 84.2262 28.173 85.8032 27.7125C86.4238 27.5357 87.0198 27.2815 87.5778 26.956C88.1278 26.6294 88.6349 26.2337 89.0865 25.7782C89.5286 25.3215 89.9159 24.8146 90.2421 24.2677C90.5651 23.7053 90.8175 23.1045 90.9929 22.4789C91.3587 21.1865 91.3587 19.8167 90.9929 18.5244C90.8183 17.8987 90.5659 17.2977 90.2421 16.7357C89.596 15.6249 88.6786 14.6994 87.5778 14.0473C87.0246 13.7257 86.4357 13.4717 85.8238 13.2907C84.246 12.8305 82.5579 12.9372 81.0492 13.5923C80.4143 13.8835 79.8214 14.2605 79.2878 14.7129L79.1846 14.8195V14.0395C79.1975 13.9402 79.1881 13.8393 79.1568 13.7442C79.1256 13.6492 79.0733 13.5625 79.0041 13.4907C78.9348 13.4189 78.8504 13.3638 78.757 13.3297C78.6637 13.2954 78.5637 13.283 78.4649 13.2933ZM79.481 18.6336C79.731 18.0561 80.0802 17.5279 80.5127 17.0737C80.9444 16.6185 81.4564 16.2481 82.0214 15.9817C82.5929 15.7145 83.2143 15.5761 83.8444 15.5761C84.4738 15.5761 85.0952 15.7145 85.6667 15.9817C86.2325 16.2461 86.7452 16.6127 87.1802 17.0633C87.6064 17.5187 87.9492 18.0469 88.1913 18.6232C88.4413 19.218 88.5698 19.8572 88.5698 20.5029C88.5698 21.1487 88.4413 21.7879 88.1913 22.3827C87.9468 22.9701 87.604 23.5109 87.1778 23.9817C86.7571 24.4417 86.2516 24.8152 85.6897 25.0814C85.1175 25.3487 84.4952 25.4871 83.8651 25.4871C83.2341 25.4871 82.6119 25.3487 82.0397 25.0814C81.4675 24.8202 80.9532 24.4453 80.5286 23.9791C80.0913 23.5176 79.7413 22.9792 79.4968 22.3905C79.2475 21.7965 79.1179 21.1585 79.1152 20.5136C79.1126 19.8687 79.237 19.2297 79.481 18.6336Z" fill="#FFDF70"/>
<path d="M120.711 13.8263C120.721 13.7254 120.709 13.6235 120.675 13.5282C120.64 13.4329 120.585 13.3468 120.513 13.2762C120.44 13.2056 120.353 13.1525 120.257 13.1208C120.162 13.089 120.06 13.0796 119.96 13.0931H118.829C118.73 13.0815 118.63 13.0925 118.537 13.1252C118.443 13.1578 118.358 13.2114 118.287 13.282C118.217 13.3525 118.164 13.438 118.131 13.5323C118.098 13.6265 118.087 13.727 118.098 13.8263V22.0993C118.108 22.584 118.003 23.0641 117.794 23.5006C117.614 23.8998 117.35 24.2548 117.021 24.5406C116.698 24.8083 116.335 25.0201 115.944 25.1672C115.506 25.3308 115.04 25.4028 114.574 25.3786C114.107 25.3545 113.65 25.2348 113.231 25.0268C112.834 24.8195 112.49 24.5223 112.225 24.1584C111.962 23.8121 111.775 23.4133 111.676 22.9885C111.568 22.5564 111.511 22.1131 111.506 21.6677V14.0394C111.518 13.79 111.46 13.5421 111.338 13.3245C111.246 13.2294 111.134 13.1567 111.01 13.1117C110.887 13.0666 110.755 13.0505 110.624 13.0645H109.809C109.687 13.0604 109.566 13.0813 109.453 13.1261C109.34 13.1708 109.237 13.2383 109.151 13.3245C109.06 13.4261 108.99 13.5449 108.947 13.6739C108.902 13.8029 108.884 13.9396 108.893 14.0758V21.6911C108.883 22.5229 109.007 23.3507 109.26 24.1428C109.497 24.8805 109.872 25.5654 110.366 26.1604C110.859 26.7425 111.476 27.2048 112.171 27.5123C113.38 28.0091 114.708 28.1366 115.989 27.8789C116.334 27.7949 116.672 27.6792 116.997 27.5331C117.3 27.3913 117.581 27.2057 117.83 26.9819L118.008 26.8155L118.106 26.7193V27.2991C118.104 27.3845 118.118 27.4696 118.149 27.5491C118.181 27.6286 118.227 27.701 118.287 27.7619C118.355 27.8473 118.442 27.9152 118.541 27.9604C118.64 28.0055 118.748 28.0266 118.856 28.0219H120.002C120.095 28.0238 120.187 28.0069 120.274 27.9721C120.36 27.9372 120.439 27.8852 120.505 27.8191C120.577 27.7546 120.633 27.6741 120.669 27.5837C120.705 27.4935 120.719 27.396 120.711 27.2991V13.8263Z" fill="#FFDF70"/>
<path d="M149.504 21.9228C149.265 21.4202 148.921 20.9764 148.493 20.6229C148.025 20.2387 147.504 19.9259 146.945 19.6947C146.314 19.4304 145.66 19.2267 144.99 19.0863C144.663 19.0118 144.343 18.9136 144.031 18.7925C143.748 18.6887 143.48 18.5508 143.231 18.3818C142.895 18.1772 142.634 17.8678 142.488 17.5003C142.403 17.2306 142.403 16.9408 142.488 16.671C142.579 16.3668 142.96 15.5296 144.436 15.436C145.847 15.3476 146.556 16.0938 146.801 16.4266C146.837 16.4734 147.183 16.9232 147.43 17.2066C147.475 17.2472 147.525 17.2822 147.577 17.3106C147.679 17.3501 147.788 17.3635 147.896 17.3494C148.003 17.3353 148.106 17.2943 148.194 17.2299L149.056 16.5852C149.149 16.5288 149.226 16.4488 149.28 16.3531C149.334 16.2574 149.363 16.1492 149.362 16.0392V16.0132C149.325 15.8461 149.258 15.6869 149.166 15.5426C148.912 15.1749 148.636 14.8225 148.34 14.4871C148.078 14.1749 147.77 13.9041 147.428 13.6837C147.072 13.4618 146.686 13.2944 146.283 13.1871C145.132 12.8932 143.921 12.9402 142.795 13.3223C142.227 13.4935 141.7 13.7811 141.248 14.1672C140.815 14.529 140.469 14.9839 140.234 15.4984C140 16.0134 139.875 16.5718 139.867 17.1379C139.86 17.7042 139.968 18.2659 140.187 18.7873C140.399 19.261 140.712 19.6818 141.103 20.0197C141.525 20.3837 141.988 20.6953 142.483 20.9479C143.063 21.2227 143.668 21.4438 144.289 21.6083C144.471 21.6499 144.655 21.6993 144.846 21.7513C145.036 21.8033 145.222 21.8527 145.41 21.8968C145.744 21.9781 146.067 22.0985 146.373 22.2556C146.629 22.3793 146.857 22.5565 147.04 22.7756C147.202 23.014 147.285 23.2967 147.28 23.5848C147.275 23.873 147.182 24.1525 147.013 24.385C146.825 24.6271 146.594 24.8318 146.332 24.9882C146.063 25.1456 145.774 25.2646 145.472 25.3418C144.963 25.4575 144.434 25.4575 143.925 25.3418C143.658 25.2721 143.398 25.1745 143.152 25.0506C142.902 24.9246 142.668 24.7674 142.457 24.5826C142.265 24.3668 142.098 24.1295 141.96 23.8754C141.894 23.724 141.797 23.589 141.673 23.4802C141.575 23.3977 141.455 23.3461 141.328 23.3318C141.201 23.3175 141.073 23.3411 140.959 23.3996L139.927 23.891C139.84 23.9281 139.76 23.981 139.692 24.047C139.636 24.1033 139.591 24.1694 139.558 24.242C139.518 24.3455 139.51 24.4584 139.533 24.567C139.543 24.6762 139.57 24.7832 139.613 24.8842C139.791 25.3557 140.044 25.7947 140.363 26.1842C140.717 26.6089 141.148 26.9619 141.632 27.2241C142.084 27.4966 142.577 27.6941 143.092 27.8091C144.275 28.0915 145.51 28.0519 146.672 27.6947C147.286 27.522 147.86 27.2287 148.361 26.8315C148.844 26.4637 149.233 25.9839 149.494 25.4327C149.749 24.8839 149.883 24.2852 149.884 23.679C149.886 23.0727 149.756 22.4733 149.504 21.9228Z" fill="#FFDF70"/>
</g>
<defs>
<clipPath id="clip0">
<rect width="150" height="32" fill="white"/>
</clipPath>
</defs>
</svg>