<svg width="22" height="18" viewBox="0 0 22 18" fill="none" xmlns="http://www.w3.org/2000/svg">
<path d="M21.7693 2.31105C20.9771 2.65069 20.1248 2.88041 19.2311 2.98301C20.1436 2.45443 20.8439 1.61807 21.1745 0.619857C20.3206 1.10956 19.3745 1.46482 18.3684 1.6563C17.5623 0.826318 16.4138 0.307617 15.1421 0.307617C12.7021 0.307617 10.7232 2.22088 10.7232 4.57989C10.7232 4.91475 10.7624 5.24069 10.8382 5.55357C7.16571 5.37547 3.90945 3.67471 1.72983 1.08917C1.34953 1.72003 1.13137 2.45443 1.13137 3.23726C1.13137 4.71912 1.91206 6.02735 3.09712 6.79329C2.3731 6.77131 1.69127 6.57918 1.09578 6.25834C1.09545 6.2765 1.09545 6.29466 1.09545 6.3125C1.09545 8.38253 2.61927 10.1091 4.64039 10.5013C4.26998 10.5994 3.87881 10.6514 3.47643 10.6514C3.19104 10.6514 2.91455 10.6249 2.64498 10.5752C3.20719 12.2721 4.83878 13.5074 6.77289 13.5421C5.26027 14.6882 3.35515 15.371 1.28428 15.371C0.928365 15.371 0.575749 15.3509 0.230713 15.3111C2.18526 16.5237 4.50857 17.2307 7.00391 17.2307C15.1319 17.2307 19.5768 10.7208 19.5768 5.0747C19.5768 4.88958 19.5725 4.7051 19.564 4.52222C20.428 3.92004 21.1771 3.1678 21.7693 2.31105Z" fill="#CDCED6"/>
</svg>