<svg width="808" height="1593" viewBox="0 0 808 1593" fill="none" xmlns="http://www.w3.org/2000/svg">
<g opacity="0.2">
<path d="M94.6305 199.355C142.202 216.918 164.881 241.556 174.141 271.039C183.435 300.629 179.279 335.272 172.718 373.013C171.611 379.381 170.435 385.835 169.246 392.363C156.372 463.045 141.895 542.529 195.243 616.966C249.181 692.227 332.071 705.986 404.779 718.054C410.616 719.023 416.388 719.981 422.074 720.96C460.42 727.556 494.777 735.043 519.35 752.706C543.814 770.29 558.705 798.066 557.836 845.624C556.089 941.258 551.909 997.853 533.034 1048.98C514.159 1100.1 480.56 1145.84 419.744 1219.66C358.93 1293.48 320.307 1335.42 272.789 1364.89C225.266 1394.36 168.781 1411.39 72.1244 1435.21C23.9222 1447.08 -9.1655 1445.31 -34.6873 1434.99C-60.221 1424.68 -78.3359 1405.76 -96.4951 1383.01C-101.15 1377.17 -105.804 1371.09 -110.583 1364.85C-143.083 1322.38 -181.364 1272.36 -264.951 1241.5C-345.954 1211.59 -414.228 1220.09 -474.605 1227.61C-485.663 1228.99 -496.455 1230.33 -507.012 1231.4C-541.141 1234.85 -572.778 1235.44 -603.089 1225.14C-633.373 1214.85 -662.442 1193.66 -691.339 1153.34C-749.329 1072.43 -781.196 1022.77 -798.169 969.495C-815.14 916.221 -817.244 859.246 -815.497 763.616C-814.625 715.902 -805.575 687.066 -790.758 668.261C-775.944 649.461 -755.243 640.523 -730.634 632.887C-724.267 630.911 -717.646 629.025 -710.81 627.077C-664.821 613.977 -609.139 598.115 -555.999 533.609C-506.067 472.995 -491.37 409.465 -478.199 352.524C-475.282 339.917 -472.44 327.632 -469.307 315.773C-460.657 283.031 -449.802 253.548 -429.133 229.282C-408.481 205.035 -377.951 185.904 -329.785 174.035C-233.134 150.217 -174.802 138.954 -116.774 142.415C-58.7421 145.877 -0.942999 164.07 94.6305 199.355Z" stroke="white" stroke-width="2"/>
<path d="M55.9149 313.61C86.757 325.098 104.757 332.313 114.806 338.682C119.821 341.862 122.801 344.798 124.418 347.901C126.029 350.994 126.319 354.315 125.826 358.338C125.393 361.872 124.363 365.901 123.123 370.751C122.946 371.445 122.764 372.155 122.579 372.884C121.106 378.69 119.443 385.584 118.198 393.984C115.705 410.79 114.885 433.599 120.544 465.824C125.891 496.272 122.039 517.766 118.687 536.472C118.508 537.474 118.33 538.468 118.154 539.455C114.706 558.884 112.379 575.63 122.696 596.737C132.991 617.8 155.852 643.161 202.577 679.97C249.313 716.789 319.979 765.102 425.955 832.059C478.933 865.53 518.428 893.485 546.799 917.009C575.179 940.539 592.393 959.607 600.852 975.296C609.297 990.96 608.987 1003.19 602.435 1013.17C595.843 1023.21 582.872 1031.08 565.726 1037.82C548.597 1044.55 527.397 1050.11 504.452 1055.59C497.576 1057.23 490.543 1058.86 483.418 1060.52C466.78 1064.39 449.638 1068.37 432.812 1072.84C408.778 1079.22 385.36 1086.61 364.924 1096.08C344.489 1105.54 327.006 1117.11 314.87 1131.88C307.733 1140.57 300.871 1149 294.226 1157.17C255.891 1204.28 224.802 1242.49 190.206 1268.59C149.662 1299.18 104.299 1313.14 36.7747 1305.17C-30.5925 1297.22 -57.1949 1252.29 -86.0945 1202.07L-87.1337 1200.27C-115.736 1150.55 -147.047 1096.12 -222.674 1068.2C-298.491 1040.21 -358.076 1061.2 -412.395 1080.34L-413.953 1080.88C-468.715 1100.17 -518.127 1117.03 -573.867 1079.72C-685.556 1004.97 -697.85 882.674 -672.65 767.395C-666.358 738.614 -657.007 720.942 -644.873 708.542C-632.729 696.133 -617.757 688.961 -600.108 681.248C-598.269 680.444 -596.401 679.635 -594.504 678.813C-560.007 663.862 -516.222 644.885 -464.885 582.407C-416.986 524.114 -400.082 473.284 -385.443 429.267C-383.533 423.523 -381.661 417.895 -379.764 412.381C-371.547 388.499 -362.864 366.786 -348.538 347.067C-334.217 327.354 -314.239 309.609 -283.402 293.701C-163.373 231.783 -72.4424 265.715 45.9654 309.9C49.2602 311.129 52.5763 312.367 55.9149 313.61Z" stroke="white"/>
<path d="M27.9587 405.427C49.7693 423.794 60.2403 443.377 64.8253 463.97C69.4208 484.61 68.116 506.305 66.2746 528.946C66.1195 530.853 65.9606 532.766 65.8012 534.686C62.1809 578.279 58.2944 625.077 92.6866 673.015C127.654 721.754 175.356 734.502 219.033 746.174C220.196 746.484 221.357 746.794 222.514 747.104C267.197 759.074 307.006 770.859 325.197 819.723C338.828 856.34 360.102 878.88 377.447 897.258C383.59 903.767 389.241 909.754 393.884 915.659C402.776 926.967 408.014 937.959 406.392 951.848C404.761 965.815 396.174 982.896 376.888 1006.29C338.336 1053.06 273.803 1106.21 205.823 1144.88C171.838 1164.22 137.02 1179.92 104.186 1189.39C71.3412 1198.87 40.5527 1202.1 14.5884 1196.58C-11.4479 1191.04 -29.3729 1181.57 -43.5945 1169.77C-57.6073 1158.15 -68.0555 1144.25 -79.1576 1129.48L-79.7142 1128.74C-102.349 1098.62 -127.755 1065.34 -191.071 1041.97C-254.354 1018.6 -302.93 1024.2 -346.93 1029.52L-348.047 1029.65C-391.59 1034.91 -430.586 1039.62 -475.354 1015.7C-520.629 991.497 -561.862 949.624 -589.269 902.307C-616.682 854.979 -630.187 802.339 -620.222 756.601C-615.266 733.855 -603.848 720.54 -588.158 711.666C-572.385 702.745 -552.287 698.302 -529.908 693.42L-529.228 693.272C-484.694 683.559 -431.702 672.002 -388.397 619.468C-348.476 571.041 -336.449 516.643 -325.533 467.266C-324.563 462.879 -323.602 458.531 -322.63 454.231C-310.709 401.447 -297.304 355.918 -248.24 330.766C-198.993 305.519 -151.932 305.702 -106.201 321.414C-60.4246 337.141 -15.9735 368.432 27.9587 405.427Z" stroke="white" stroke-width="2"/>
<path d="M-100.56 357.009C-76.2532 365.983 -58.1216 386.065 -43.6725 412.527C-29.2235 438.988 -18.4885 471.772 -8.94757 506.06C-4.95802 520.398 -1.17502 535.008 2.58366 549.525C7.80528 569.691 12.9799 589.676 18.5961 608.497C28.2587 640.878 39.2596 669.934 54.1415 690.756C83.844 732.314 111.544 754.81 141.239 770.384C162.13 781.341 184.021 788.873 208.25 797.21C218.418 800.709 228.997 804.349 240.087 808.443C277.501 822.256 310.613 857.681 326.587 899.129C342.557 940.564 341.372 987.932 310.333 1025.68C279.284 1063.43 224.246 1078.62 164.44 1087.4C141.975 1090.7 118.867 1093.1 96.1319 1095.45C88.6175 1096.23 81.1438 1097 73.7476 1097.81C43.9853 1101.03 15.4807 1104.69 -9.31157 1110.84C-21.6316 1113.89 -31.5907 1113.93 -39.7876 1111.64C-47.9783 1109.34 -54.4498 1104.7 -59.7812 1098.32C-70.4713 1085.51 -76.5463 1065.75 -82.6147 1043.95C-83.1765 1041.94 -83.7382 1039.9 -84.3034 1037.85C-89.8309 1017.83 -95.6987 996.569 -105.366 977.934C-116.032 957.374 -131.342 939.968 -155.957 930.88C-180.568 921.794 -204.503 924.707 -227.448 932.846C-247.677 940.021 -267.176 951.273 -285.716 961.971C-288.192 963.4 -290.651 964.818 -293.092 966.216C-313.849 978.103 -333.299 988.458 -351.242 990.699C-360.196 991.818 -368.76 990.912 -376.917 987.17C-385.077 983.427 -392.867 976.83 -400.244 966.508C-427.835 927.903 -466.467 921.529 -499.624 916.058C-502.279 915.619 -504.9 915.187 -507.477 914.744C-524.89 911.753 -540.25 908.303 -551.155 899.543C-562.016 890.82 -568.539 876.754 -568.071 852.31C-567.605 827.932 -556.5 807.748 -539.073 789.979C-521.638 772.201 -497.9 756.87 -472.228 742.212C-461.627 736.159 -450.687 730.217 -439.731 724.265C-424.188 715.822 -408.611 707.361 -393.922 698.542C-368.862 683.495 -346.277 667.347 -330.631 648.32C-305.029 617.186 -297.472 584.573 -290.699 555.339C-289.199 548.866 -287.738 542.558 -286.127 536.469C-281.681 519.658 -276.106 504.517 -265.506 492.048C-254.915 479.59 -239.265 469.755 -214.587 463.639C-189.706 457.473 -176.179 445.403 -168.392 431.303C-160.919 417.771 -158.759 402.405 -156.841 388.765C-156.766 388.229 -156.691 387.696 -156.616 387.165C-155.623 380.134 -154.645 373.62 -152.976 368.069C-151.308 362.52 -148.967 357.991 -145.288 354.887C-137.953 348.7 -125.024 347.978 -100.56 357.009Z" stroke="white"/>
</g>
</svg>