<svg width="822" height="626" viewBox="0 0 822 626" fill="none" xmlns="http://www.w3.org/2000/svg">
<path opacity="0.2" d="M1338.25 -420.221C1351.37 -371.239 1344.35 -338.497 1325.62 -313.914C1306.83 -289.242 1276.14 -272.635 1241.54 -256.202C1235.7 -253.43 1229.75 -250.664 1223.73 -247.865C1158.59 -217.569 1085.33 -183.5 1055.35 -96.9656C1025.05 -9.47389 1061.67 66.1491 1093.79 132.483C1096.37 137.809 1098.92 143.074 1101.4 148.281C1118.16 183.4 1131.88 215.775 1131.64 246.036C1131.41 276.163 1117.33 304.358 1078 331.106C998.902 384.893 950.279 414.155 897.638 428.26C844.998 442.365 788.258 441.335 692.868 434.301C597.48 427.267 540.938 419.945 489.446 398.158C437.949 376.368 391.431 340.081 316.179 274.913C278.651 242.413 261 214.371 254.684 187.579C248.366 160.775 253.353 135.062 261.449 107.097C263.524 99.929 265.803 92.6178 268.143 85.1101C284.053 34.0565 302.795 -26.08 279.733 -112.146C257.385 -195.551 211.027 -246.389 170.031 -291.347C162.523 -299.58 155.194 -307.617 148.227 -315.619C125.701 -341.491 106.956 -366.984 97.865 -397.678C88.7823 -428.345 89.3055 -464.318 105.543 -511.191C138.129 -605.254 160.271 -659.939 193.975 -704.558C227.674 -749.172 272.98 -783.785 352.071 -837.569C391.532 -864.405 420.302 -873.664 444.211 -872.422C468.114 -871.181 487.364 -859.439 507.806 -843.755C513.096 -839.697 518.459 -835.379 523.995 -830.922C561.243 -800.935 606.342 -764.628 689.691 -758.482C768.011 -752.707 828.368 -777.386 882.465 -799.506C894.443 -804.403 906.114 -809.176 917.605 -813.464C949.334 -825.304 979.673 -833.463 1011.42 -830.597C1043.14 -827.734 1076.39 -813.851 1113.89 -781.376C1189.14 -716.211 1232.01 -675.086 1262.69 -625.707C1293.36 -576.325 1311.88 -518.629 1338.25 -420.221Z" stroke="#7166A2" stroke-width="2"/>
<path opacity="0.2" d="M1222.61 -385.868C1231.03 -354.053 1235.53 -335.19 1236.13 -323.309C1236.43 -317.378 1235.76 -313.249 1234.16 -310.138C1232.56 -307.037 1230.02 -304.882 1226.45 -302.962C1223.31 -301.275 1219.43 -299.791 1214.75 -298.003C1214.08 -297.747 1213.4 -297.485 1212.7 -297.216C1207.11 -295.067 1200.52 -292.444 1192.94 -288.611C1177.78 -280.943 1158.68 -268.444 1135.64 -245.219C1113.86 -223.274 1094.09 -214.01 1076.88 -205.947C1075.96 -205.515 1075.04 -205.086 1074.14 -204.659C1056.28 -196.258 1041.26 -188.49 1029.99 -167.88C1018.73 -147.314 1011.22 -114.006 1008.15 -54.6032C1005.07 4.81433 1006.42 90.4065 1012.93 215.593C1016.19 278.174 1016.17 326.561 1013.34 363.307C1010.51 400.065 1004.88 425.129 996.953 441.094C989.04 457.032 978.876 463.84 966.944 464.252C954.941 464.666 941.025 458.619 925.626 448.508C910.243 438.408 893.461 424.31 875.741 408.738C870.43 404.072 865.035 399.273 859.57 394.411C846.807 383.058 833.657 371.362 820.294 360.204C801.205 344.266 781.656 329.408 762.125 318.189C742.597 306.971 723.057 299.374 703.992 297.992C692.78 297.18 681.931 296.446 671.427 295.735C610.826 291.635 561.681 288.31 520.394 275.132C472.009 259.69 434.419 230.711 401.944 170.975C369.544 111.377 390.867 63.7193 415.187 11.1281L416.062 9.23674C440.144 -42.8213 466.507 -99.8102 445.642 -177.68C424.724 -255.746 373.183 -292.277 326.197 -325.58L324.849 -326.535C277.484 -360.113 235.191 -390.724 233.471 -457.775C230.024 -592.128 322.783 -672.773 431.457 -718.753C458.589 -730.232 478.418 -732.8 495.547 -730.051C512.691 -727.3 527.19 -719.216 543.677 -709.259C545.396 -708.221 547.136 -707.163 548.901 -706.089C581.026 -686.554 621.799 -661.76 702.452 -655.914C777.703 -650.46 828.965 -666.003 873.357 -679.464C879.149 -681.221 884.825 -682.942 890.422 -684.576C914.666 -691.655 937.407 -697.101 961.78 -696.789C986.143 -696.477 1012.17 -690.41 1042.96 -674.416C1162.81 -612.159 1187.61 -518.324 1219.89 -396.134C1220.79 -392.734 1221.69 -389.312 1222.61 -385.868Z" stroke="#7166A2"/>
<path opacity="0.2" d="M1131.5 -355.685C1129.09 -327.272 1119.15 -307.416 1104.98 -291.783C1090.78 -276.115 1072.31 -264.655 1052.76 -253.087C1051.12 -252.112 1049.46 -251.138 1047.8 -250.159C1010.12 -227.947 969.666 -204.102 950.381 -148.344C930.773 -91.6536 947.905 -45.3458 963.592 -2.94414C964.01 -1.81505 964.426 -0.688725 964.841 0.434975C980.866 43.8294 994.227 83.1371 964.831 126.202C942.804 158.473 936.682 188.856 931.69 213.628C929.922 222.402 928.296 230.472 926.156 237.673C922.056 251.462 916.105 262.085 903.829 268.779C891.483 275.511 872.578 278.362 842.341 276.122C781.898 271.645 701.242 249.641 630.417 216.463C595.009 199.876 562.09 180.511 535.396 159.173C508.694 137.827 488.281 114.553 477.799 90.166C467.287 65.7109 464.673 45.6061 466.094 27.1831C467.495 9.03064 472.814 -7.52657 478.465 -25.1198L478.749 -26.0019C490.268 -61.8678 502.772 -101.826 485.304 -167.02C467.844 -232.179 435.23 -268.61 405.487 -301.468L404.732 -302.303C375.297 -334.818 348.936 -363.938 342.627 -414.305C336.246 -465.244 346.629 -523.086 369.44 -572.781C392.257 -622.489 427.441 -663.907 470.54 -682.177C491.973 -691.263 509.437 -689.627 525.741 -681.94C542.131 -674.212 557.362 -660.367 574.269 -644.912L574.782 -644.443C608.424 -613.689 648.456 -577.093 716.351 -572.064C778.94 -567.428 830.3 -589.015 876.919 -608.609C881.061 -610.35 885.166 -612.075 889.238 -613.765C939.218 -634.505 984.132 -649.845 1033 -624.306C1082.04 -598.672 1109.06 -560.142 1122.64 -513.731C1136.22 -467.274 1136.34 -412.914 1131.5 -355.685Z" stroke="#7166A2" stroke-width="2"/>
<path opacity="0.2" d="M1096.83 -488.574C1103.54 -463.546 1097.61 -437.148 1084.34 -410.073C1071.08 -382.998 1050.51 -355.305 1028.02 -327.719C1018.62 -316.183 1008.87 -304.659 999.19 -293.209C985.739 -277.303 972.409 -261.54 960.284 -246.088C939.423 -219.504 922.051 -193.746 913.641 -169.574C896.857 -121.328 894.481 -85.7228 898.91 -52.4851C902.025 -29.102 908.513 -6.87958 915.695 17.717C918.708 28.0386 921.844 38.7781 924.903 50.197C935.226 88.7209 925.418 136.209 900.799 173.182C876.187 210.144 836.827 236.523 788.087 232.972C739.333 229.419 695.161 193.245 653.459 149.486C637.795 133.049 622.499 115.563 607.449 98.36C602.475 92.6741 597.528 87.0189 592.603 81.4426C572.787 59.0037 553.339 37.8447 534.009 21.1489C524.403 12.8522 518.619 4.74473 515.762 -3.27405C512.907 -11.2867 512.96 -19.2503 515.095 -27.2895C519.376 -43.409 532.006 -59.7798 546.299 -77.3186C547.622 -78.9424 548.96 -80.5759 550.305 -82.2197C563.465 -98.2945 577.435 -115.359 587.069 -134.012C597.698 -154.59 603.071 -177.14 596.28 -202.485C589.49 -227.826 573.293 -245.687 553.4 -259.723C535.863 -272.097 515.418 -281.522 495.979 -290.484C493.383 -291.68 490.805 -292.869 488.254 -294.055C466.565 -304.141 446.881 -314.043 434.692 -327.399C428.609 -334.065 424.404 -341.58 422.75 -350.401C421.095 -359.224 421.984 -369.393 426.153 -381.376C441.744 -426.193 424.645 -461.416 409.969 -491.647C408.794 -494.069 407.634 -496.458 406.508 -498.817C398.897 -514.763 392.846 -529.296 393.702 -543.257C394.554 -557.161 402.272 -570.608 422.502 -584.339C442.675 -598.032 465.567 -600.619 490.137 -596.649C514.718 -592.676 540.942 -582.146 567.732 -569.647C578.794 -564.486 589.962 -558.985 601.147 -553.475C617.014 -545.658 632.916 -537.825 648.597 -530.923C675.351 -519.149 701.576 -510.031 726.145 -508.241C766.346 -505.312 797.338 -517.971 825.118 -529.318C831.269 -531.831 837.263 -534.279 843.164 -536.48C859.458 -542.555 875.039 -546.745 891.34 -545.289C907.627 -543.834 924.692 -536.734 943.934 -520.115C963.333 -503.36 980.998 -499.283 997.006 -501.066C1012.37 -502.777 1026.16 -509.885 1038.41 -516.194C1038.89 -516.442 1039.37 -516.689 1039.84 -516.934C1046.16 -520.182 1052.04 -523.144 1057.54 -524.987C1063.03 -526.828 1068.08 -527.532 1072.74 -526.32C1082.03 -523.903 1090.08 -513.763 1096.83 -488.574Z" stroke="#7166A2"/>
</svg>