<svg width="599" height="326" viewBox="0 0 599 326" fill="none" xmlns="http://www.w3.org/2000/svg">
<g opacity="0.2">
<path d="M159.753 -97.4627C188.959 -86.68 202.813 -71.586 208.47 -53.5766C214.16 -35.4603 211.622 -14.2206 207.581 9.02168C206.9 12.9421 206.175 16.9172 205.442 20.9403C197.517 64.4375 188.572 113.533 221.515 159.499C254.818 205.967 306.006 214.461 350.748 221.886C354.347 222.483 357.905 223.073 361.408 223.676C385.027 227.739 406.09 232.339 421.136 243.153C436.073 253.89 445.203 270.857 444.67 300.039C443.594 358.919 441.019 393.699 429.425 425.105C417.83 456.51 397.186 484.62 359.742 530.073C322.301 575.524 298.559 601.296 269.365 619.398C240.167 637.503 205.449 647.977 145.939 662.642C116.31 669.943 96.0286 668.837 80.4172 662.529C64.7939 656.217 53.6931 644.638 42.5223 630.639C39.6609 627.053 36.7984 623.313 33.8578 619.47C13.8479 593.321 -9.784 562.44 -61.3534 543.401C-111.317 524.954 -153.448 530.202 -190.621 534.831C-197.423 535.678 -204.059 536.505 -210.547 537.162C-231.546 539.288 -250.954 539.642 -269.534 533.329C-288.086 527.025 -305.921 514.035 -323.675 489.263C-359.379 439.445 -378.962 408.924 -389.39 376.189C-399.817 343.459 -401.116 308.442 -400.04 249.565C-399.504 220.228 -393.939 202.574 -384.892 191.092C-375.848 179.614 -363.201 174.14 -348.065 169.443C-344.153 168.229 -340.081 167.069 -335.876 165.871C-307.557 157.806 -273.165 148.011 -240.371 108.201C-209.567 70.8086 -200.497 31.5944 -192.389 -3.46496C-190.595 -11.2193 -188.849 -18.7703 -186.925 -26.0534C-181.603 -46.1944 -174.938 -64.2773 -162.271 -79.1501C-149.62 -94.0032 -130.902 -105.746 -101.309 -113.038C-41.8039 -127.702 -5.94468 -134.621 29.7147 -132.494C65.3772 -130.367 100.911 -119.187 159.753 -97.4627Z" stroke="#FFDF70" stroke-width="2"/>
<path d="M135.984 -27.3033C154.979 -20.2282 166.039 -15.7937 172.204 -11.8856C175.278 -9.93693 177.081 -8.15144 178.054 -6.28348C179.022 -4.4262 179.202 -2.42494 178.901 0.0292752C178.636 2.19199 178.005 4.65853 177.241 7.64699C177.132 8.07395 177.02 8.51155 176.906 8.96045C175.999 12.5371 174.973 16.7886 174.205 21.9699C172.668 32.3374 172.163 46.3999 175.651 66.259C178.936 84.9699 176.57 98.1734 174.507 109.687C174.397 110.304 174.287 110.915 174.179 111.522C172.055 123.49 170.612 133.852 176.992 146.905C183.35 159.914 197.454 175.549 226.223 198.213C255.004 220.887 298.516 250.635 363.761 291.857C396.372 312.461 420.679 329.666 438.137 344.141C455.603 358.622 466.177 370.342 471.367 379.968C476.543 389.568 476.335 397.019 472.35 403.088C468.327 409.216 460.389 414.043 449.841 418.187C439.31 422.325 426.27 425.747 412.144 429.12C407.913 430.13 403.585 431.136 399.198 432.155C388.954 434.536 378.396 436.989 368.035 439.742C353.235 443.673 338.805 448.222 326.209 454.059C313.615 459.895 302.823 467.031 295.326 476.155C290.931 481.504 286.705 486.698 282.613 491.726C259.011 520.732 239.889 544.232 218.61 560.287C193.693 579.088 165.816 587.673 124.291 582.77C82.9218 577.886 66.5865 550.316 48.7915 519.393L48.146 518.271C30.5394 487.665 11.2327 454.104 -35.3922 436.891C-82.1338 419.634 -118.874 432.578 -152.311 444.358L-153.282 444.7C-187.003 456.577 -217.332 466.916 -251.56 444.007C-320.224 398.051 -327.801 322.863 -312.294 251.926C-308.426 234.23 -302.682 223.387 -295.244 215.787C-287.796 208.177 -278.611 203.774 -267.745 199.025C-266.613 198.531 -265.463 198.032 -264.296 197.526C-243.049 188.318 -216.06 176.62 -184.425 138.121C-154.913 102.204 -144.496 70.8799 -135.483 43.7794C-134.307 40.2434 -133.155 36.7794 -131.988 33.3865C-126.931 18.6873 -121.592 5.34293 -112.79 -6.77326C-103.993 -18.8818 -91.7185 -29.788 -72.7576 -39.5692C1.06089 -77.649 56.9666 -56.7876 129.878 -29.5805C131.9 -28.8259 133.935 -28.0665 135.984 -27.3033Z" stroke="#FFDF70"/>
<path d="M118.593 29.3368C131.956 40.5898 138.357 52.5722 141.162 65.1679C143.977 77.8106 143.18 91.1122 142.046 105.055C141.95 106.235 141.852 107.419 141.753 108.608C139.524 135.435 137.12 164.375 158.377 194.005C179.986 224.124 209.473 232.003 236.349 239.184C237.074 239.378 237.796 239.571 238.517 239.764C266.04 247.137 290.349 254.355 301.472 284.234C309.894 306.857 323.074 320.822 333.761 332.144C337.529 336.137 340.987 339.8 343.817 343.399C349.26 350.322 352.419 356.989 351.437 365.396C350.446 373.883 345.219 384.328 333.359 398.715C309.66 427.464 269.969 460.158 228.151 483.948C207.247 495.841 185.84 505.491 165.663 511.314C145.474 517.14 126.589 519.114 110.689 515.733C94.7178 512.336 83.74 506.531 75.0349 499.31C66.4431 492.183 60.0343 483.655 53.1909 474.55L52.8601 474.11C38.9105 455.552 23.2142 434.992 -15.8698 420.562C-54.9204 406.145 -84.904 409.602 -112.002 412.875L-112.658 412.954C-139.483 416.195 -163.384 419.083 -190.837 404.41C-218.639 389.55 -243.975 363.826 -260.817 334.749C-277.665 305.662 -285.937 273.354 -279.83 245.321C-276.803 231.428 -269.843 223.321 -260.276 217.91C-250.626 212.453 -238.316 209.727 -224.522 206.718L-224.083 206.622C-196.67 200.644 -163.933 193.504 -137.188 161.06C-112.55 131.171 -105.127 97.594 -98.4089 67.2035C-97.8113 64.4998 -97.2192 61.8214 -96.621 59.1731C-89.2801 26.6702 -81.0543 -1.18401 -51.0227 -16.5797C-20.8086 -32.0689 8.054 -31.9587 36.1215 -22.3157C64.2345 -12.6571 91.5562 6.56912 118.593 29.3368Z" stroke="#FFDF70" stroke-width="2"/>
<path d="M39.6529 -0.584425C54.5558 4.91767 65.6887 17.2356 74.5729 33.5059C83.4572 49.7764 90.0614 69.9415 95.9345 91.0485C98.3884 99.8672 100.717 108.86 103.031 117.797C106.247 130.216 109.435 142.528 112.892 154.116C118.842 174.054 125.622 191.968 134.803 204.814C153.105 230.422 170.181 244.292 188.491 253.895C201.366 260.648 214.864 265.292 229.787 270.427C236.044 272.58 242.551 274.819 249.368 277.336C272.342 285.818 292.691 307.58 302.509 333.055C312.323 358.517 311.587 387.601 292.533 410.772C273.469 433.954 239.656 443.295 202.836 448.703C189.011 450.734 174.79 452.208 160.795 453.658C156.168 454.137 151.565 454.614 147.009 455.108C128.686 457.094 111.126 459.35 95.8493 463.136C88.2871 465.01 82.1909 465.031 77.1852 463.629C72.1856 462.228 68.2332 459.395 64.972 455.49C58.4221 447.646 54.6909 435.522 50.9524 422.094C50.6065 420.852 50.2606 419.598 49.9124 418.337C46.5105 406.012 42.8927 392.904 36.9311 381.412C30.3496 368.726 20.8925 357.968 5.68119 352.352C-9.52606 346.738 -24.3098 348.542 -38.4623 353.562C-50.9335 357.986 -62.9546 364.922 -74.3666 371.507C-75.891 372.387 -77.4044 373.26 -78.9066 374.121C-91.6915 381.442 -103.632 387.795 -114.634 389.169C-120.118 389.854 -125.353 389.298 -130.337 387.012C-135.323 384.725 -140.095 380.689 -144.621 374.355C-161.656 350.521 -185.516 346.585 -205.924 343.219C-207.56 342.949 -209.175 342.682 -210.762 342.41C-221.488 340.567 -230.895 338.448 -237.565 333.091C-244.189 327.77 -248.194 319.177 -247.907 304.165C-247.621 289.221 -240.815 276.839 -230.11 265.923C-219.395 254.998 -204.801 245.57 -188.999 236.548C-182.481 232.827 -175.748 229.169 -169.003 225.505C-159.43 220.305 -149.831 215.091 -140.787 209.661C-125.354 200.395 -111.427 190.439 -101.773 178.7C-85.98 159.494 -81.3169 139.365 -77.1471 121.366C-76.2248 117.384 -75.3266 113.507 -74.3374 109.767C-71.6022 99.4254 -68.1792 90.1377 -61.6817 82.495C-55.1926 74.8622 -45.5969 68.8248 -30.4338 65.0672C-15.0685 61.2596 -6.69406 53.7972 -1.87268 45.0665C2.74555 36.7038 4.07983 27.2117 5.25921 18.8217C5.30606 18.4885 5.35266 18.157 5.39921 17.8273C6.01089 13.496 6.61174 9.50035 7.63398 6.09932C8.65564 2.7002 10.0824 -0.0479802 12.3069 -1.92438C16.7327 -5.65762 24.5928 -6.14454 39.6529 -0.584425Z" stroke="#FFDF70"/>
</g>
</svg>