<svg width="617" height="326" viewBox="0 0 617 326" fill="none" xmlns="http://www.w3.org/2000/svg">
<g opacity="0.2">
<path d="M645.753 -459.463C674.959 -448.68 688.813 -433.586 694.47 -415.577C700.16 -397.46 697.622 -376.221 693.581 -352.978C692.9 -349.058 692.175 -345.083 691.442 -341.06C683.517 -297.563 674.572 -248.467 707.515 -202.501C740.818 -156.033 792.006 -147.539 836.748 -140.114C840.347 -139.517 843.905 -138.927 847.408 -138.324C871.027 -134.261 892.09 -129.661 907.136 -118.847C922.073 -108.11 931.203 -91.1435 930.67 -61.9613C929.594 -3.08097 927.019 31.6992 915.425 63.1048C903.83 94.5103 883.186 122.62 845.742 168.073C808.301 213.524 784.559 239.296 755.365 257.398C726.167 275.503 691.449 285.977 631.939 300.642C602.31 307.943 582.029 306.837 566.417 300.529C550.794 294.217 539.693 282.638 528.522 268.639C525.661 265.053 522.798 261.313 519.858 257.47C499.848 231.321 476.216 200.44 424.647 181.401C374.683 162.954 332.552 168.202 295.379 172.831C288.577 173.678 281.941 174.505 275.453 175.162C254.454 177.288 235.046 177.642 216.466 171.329C197.914 165.025 180.079 152.035 162.325 127.263C126.621 77.4455 107.038 46.9239 96.61 14.1887C86.1833 -18.5411 84.8844 -53.5583 85.96 -112.435C86.496 -141.772 92.0608 -159.426 101.108 -170.908C110.152 -182.386 122.799 -187.86 137.935 -192.557C141.847 -193.771 145.919 -194.931 150.124 -196.129C178.443 -204.194 212.835 -213.989 245.629 -253.799C276.433 -291.191 285.503 -330.406 293.611 -365.465C295.405 -373.219 297.151 -380.77 299.075 -388.053C304.397 -408.194 311.062 -426.277 323.729 -441.15C336.38 -456.003 355.098 -467.746 384.691 -475.038C444.196 -489.702 480.055 -496.621 515.715 -494.494C551.377 -492.367 586.911 -481.187 645.753 -459.463Z" stroke="#FFDF70" stroke-width="2"/>
<path d="M621.984 -389.303C640.979 -382.228 652.039 -377.794 658.204 -373.886C661.278 -371.937 663.081 -370.151 664.054 -368.283C665.022 -366.426 665.202 -364.425 664.901 -361.971C664.636 -359.808 664.005 -357.341 663.241 -354.353C663.132 -353.926 663.02 -353.488 662.906 -353.04C661.999 -349.463 660.973 -345.211 660.205 -340.03C658.668 -329.663 658.163 -315.6 661.651 -295.741C664.936 -277.03 662.57 -263.827 660.507 -252.313C660.397 -251.696 660.287 -251.085 660.179 -250.478C658.055 -238.51 656.612 -228.148 662.992 -215.095C669.35 -202.086 683.454 -186.451 712.223 -163.787C741.004 -141.113 784.516 -111.365 849.76 -70.1434C882.372 -49.5393 906.679 -32.334 924.137 -17.8594C941.603 -3.37778 952.177 8.34198 957.367 17.968C962.543 27.568 962.335 35.0186 958.35 41.0876C954.327 47.2156 946.389 52.0432 935.841 56.1874C925.31 60.3249 912.27 63.7468 898.144 67.1197C893.913 68.13 889.585 69.136 885.198 70.1553C874.954 72.5359 864.396 74.9894 854.035 77.7418C839.235 81.6734 824.805 86.2224 812.209 92.059C799.615 97.8946 788.823 105.031 781.326 114.155C776.931 119.504 772.705 124.698 768.613 129.726C745.011 158.732 725.889 182.232 704.61 198.287C679.693 217.088 651.816 225.673 610.291 220.77C568.922 215.886 552.587 188.316 534.791 157.393L534.146 156.271C516.539 125.665 497.233 92.1044 450.608 74.8907C403.866 57.6339 367.126 70.5778 333.689 82.3581L332.718 82.7C298.997 94.5771 268.668 104.916 234.44 82.0075C165.776 36.0509 158.199 -39.1373 173.706 -110.074C177.574 -127.77 183.318 -138.613 190.756 -146.213C198.204 -153.823 207.389 -158.226 218.255 -162.975C219.387 -163.469 220.537 -163.968 221.704 -164.474C242.951 -173.682 269.94 -185.38 301.575 -223.879C331.087 -259.796 341.504 -291.12 350.517 -318.221C351.693 -321.757 352.845 -325.221 354.012 -328.614C359.069 -343.313 364.408 -356.657 373.21 -368.773C382.007 -380.882 394.281 -391.788 413.242 -401.569C487.061 -439.649 542.967 -418.788 615.878 -391.581C617.9 -390.826 619.935 -390.066 621.984 -389.303Z" stroke="#FFDF70"/>
<path d="M604.593 -332.663C617.956 -321.41 624.358 -309.428 627.162 -296.832C629.977 -284.189 629.18 -270.888 628.046 -256.945C627.95 -255.765 627.852 -254.581 627.753 -253.392C625.524 -226.565 623.12 -197.625 644.377 -167.995C665.986 -137.876 695.473 -129.997 722.349 -122.816C723.074 -122.622 723.796 -122.429 724.517 -122.236C752.04 -114.863 776.349 -107.645 787.472 -77.7658C795.894 -55.1426 809.074 -41.1781 819.761 -29.8556C823.529 -25.8634 826.987 -22.1996 829.817 -18.6006C835.26 -11.6778 838.419 -5.01117 837.437 3.39644C836.446 11.8825 831.219 22.3276 819.359 36.7149C795.66 65.4639 755.969 98.1578 714.151 121.948C693.247 133.841 671.84 143.491 651.663 149.314C631.474 155.14 612.589 157.114 596.689 153.733C580.718 150.336 569.74 144.531 561.035 137.31C552.443 130.183 546.034 121.655 539.191 112.55L538.86 112.11C524.91 93.5516 509.214 72.992 470.13 58.5624C431.08 44.1451 401.096 47.6021 373.998 50.875L373.342 50.9543C346.517 54.1953 322.616 57.0831 295.163 42.4095C267.361 27.5495 242.025 1.82601 225.183 -27.2506C208.335 -56.3385 200.063 -88.6461 206.171 -116.679C209.197 -130.572 216.157 -138.679 225.724 -144.09C235.374 -149.547 247.684 -152.273 261.478 -155.282L261.917 -155.378C289.33 -161.356 322.067 -168.496 348.812 -200.94C373.45 -230.829 380.873 -264.406 387.591 -294.797C388.189 -297.5 388.781 -300.179 389.379 -302.827C396.72 -335.33 404.946 -363.184 434.977 -378.58C465.191 -394.069 494.054 -393.959 522.122 -384.316C550.235 -374.657 577.556 -355.431 604.593 -332.663Z" stroke="#FFDF70" stroke-width="2"/>
<path d="M525.653 -362.584C540.556 -357.082 551.689 -344.764 560.573 -328.494C569.457 -312.224 576.061 -292.059 581.934 -270.952C584.388 -262.133 586.717 -253.14 589.031 -244.203C592.247 -231.784 595.435 -219.472 598.892 -207.884C604.842 -187.946 611.622 -170.032 620.803 -157.186C639.105 -131.578 656.181 -117.708 674.491 -108.105C687.366 -101.352 700.864 -96.7077 715.787 -91.5728C722.044 -89.4199 728.551 -87.1808 735.368 -84.6639C758.342 -76.1822 778.691 -54.4197 788.509 -28.9454C798.323 -3.48337 797.587 25.6008 778.533 48.7719C759.469 71.9542 725.656 81.2947 688.836 86.7034C675.01 88.7343 660.79 90.2078 646.795 91.658C642.168 92.1374 637.565 92.6143 633.009 93.108C614.686 95.0936 597.126 97.3501 581.849 101.136C574.287 103.01 568.191 103.031 563.185 101.629C558.186 100.228 554.233 97.3953 550.972 93.4898C544.422 85.646 540.691 73.5219 536.952 60.094C536.606 58.8516 536.261 57.5984 535.912 56.337C532.511 44.0117 528.893 30.9039 522.931 19.4123C516.35 6.72611 506.892 -4.03161 491.681 -9.64755C476.474 -15.262 461.69 -13.4578 447.538 -8.43799C435.066 -4.01448 423.045 2.92214 411.633 9.50737C410.109 10.387 408.596 11.2603 407.093 12.1205C394.309 19.4416 382.367 25.795 371.366 27.1691C365.882 27.854 360.647 27.2985 355.663 25.0124C350.677 22.7251 345.905 18.689 341.379 12.3552C324.344 -11.4788 300.484 -15.4149 280.076 -18.7814C278.44 -19.0514 276.825 -19.3178 275.238 -19.5904C264.512 -21.4332 255.105 -23.5521 248.435 -28.9092C241.811 -34.2304 237.806 -42.8228 238.093 -57.8345C238.379 -72.7792 245.185 -85.1613 255.89 -96.077C266.605 -107.002 281.199 -116.43 297.001 -125.452C303.519 -129.173 310.252 -132.831 316.997 -136.495C326.57 -141.695 336.169 -146.909 345.213 -152.339C360.646 -161.605 374.573 -171.561 384.227 -183.3C400.02 -202.506 404.683 -222.635 408.853 -240.634C409.775 -244.616 410.673 -248.493 411.663 -252.233C414.398 -262.575 417.821 -271.862 424.318 -279.505C430.807 -287.138 440.403 -293.175 455.566 -296.933C470.932 -300.74 479.306 -308.203 484.127 -316.933C488.746 -325.296 490.08 -334.788 491.259 -343.178C491.306 -343.512 491.353 -343.843 491.399 -344.173C492.011 -348.504 492.612 -352.5 493.634 -355.901C494.656 -359.3 496.082 -362.048 498.307 -363.924C502.733 -367.658 510.593 -368.145 525.653 -362.584Z" stroke="#FFDF70"/>
</g>
</svg>