<svg width="474" height="1222" viewBox="0 0 474 1222" fill="none" xmlns="http://www.w3.org/2000/svg">
<g opacity="0.2">
<path d="M787.016 175.934C822.654 189.091 839.598 207.527 846.517 229.555C853.469 251.689 850.365 277.622 845.441 305.942C844.61 310.72 843.728 315.563 842.835 320.463C833.177 373.481 822.295 433.218 862.384 489.155C902.913 545.706 965.203 556.044 1019.74 565.095C1024.12 565.822 1028.45 566.541 1032.72 567.275C1061.5 572.226 1087.22 577.837 1105.6 591.049C1123.87 604.184 1135.02 624.936 1134.37 660.554C1133.06 732.305 1129.92 774.725 1115.78 813.036C1101.63 851.347 1076.45 885.628 1030.82 941.018C985.197 996.404 956.244 1027.84 920.633 1049.92C885.017 1072 842.676 1084.77 770.158 1102.64C734.024 1111.55 709.258 1110.21 690.176 1102.5C671.082 1094.78 657.525 1080.63 643.907 1063.57C640.418 1059.2 636.928 1054.64 633.343 1049.95C608.96 1018.09 580.197 980.504 517.415 957.325C456.582 934.866 405.295 941.252 359.997 946.893C351.704 947.926 343.612 948.933 335.699 949.735C310.103 952.326 286.412 952.762 263.724 945.053C241.063 937.354 219.294 921.49 197.637 891.273C154.129 830.566 130.245 793.345 117.524 753.415C104.806 713.491 103.225 670.784 104.536 599.036C105.189 563.264 111.975 541.694 123.043 527.647C134.107 513.605 149.575 506.918 168.028 501.192C172.8 499.711 177.764 498.297 182.891 496.837C217.398 487.008 259.246 475.088 299.165 426.63C336.667 381.105 347.708 333.375 357.589 290.653C359.776 281.199 361.906 271.991 364.254 263.105C370.741 238.551 378.873 216.476 394.343 198.314C409.795 180.171 432.65 165.841 468.748 156.945C541.261 139.076 584.99 130.636 628.483 133.23C671.979 135.825 715.31 149.46 787.016 175.934Z" stroke="#FFDF70" stroke-width="2"/>
<path d="M758.013 261.536C781.157 270.156 794.647 275.564 802.172 280.334C805.926 282.714 808.141 284.902 809.34 287.203C810.533 289.493 810.751 291.956 810.383 294.96C810.059 297.603 809.289 300.616 808.358 304.256C808.225 304.777 808.089 305.31 807.95 305.857C806.844 310.215 805.596 315.392 804.66 321.7C802.788 334.322 802.173 351.448 806.421 375.638C810.429 398.459 807.542 414.565 805.028 428.598C804.893 429.349 804.76 430.095 804.628 430.835C802.04 445.416 800.287 458.014 808.046 473.888C815.783 489.716 832.954 508.758 868.011 536.376C903.08 564.003 956.101 600.252 1035.61 650.486C1075.35 675.597 1104.98 696.566 1126.26 714.21C1147.55 731.86 1160.45 746.153 1166.78 757.903C1173.1 769.626 1172.86 778.751 1167.97 786.189C1163.05 793.687 1153.35 799.58 1140.49 804.632C1127.65 809.677 1111.75 813.849 1094.54 817.959C1089.38 819.191 1084.11 820.417 1078.76 821.659C1066.28 824.56 1053.41 827.549 1040.79 830.903C1022.75 835.694 1005.18 841.235 989.835 848.344C974.496 855.452 961.36 864.14 952.239 875.241C946.884 881.759 941.734 888.087 936.749 894.214C907.987 929.562 884.675 958.212 858.732 977.786C828.342 1000.72 794.342 1011.18 743.711 1005.21C693.238 999.246 673.307 965.599 651.623 927.918L650.84 926.556C629.383 889.257 605.872 848.389 549.091 827.426C492.167 806.409 447.426 822.172 406.676 836.528L405.5 836.943C364.41 851.415 327.398 864.038 285.637 836.087C201.905 780.045 192.677 688.36 211.578 601.894C216.295 580.316 223.302 567.082 232.385 557.801C241.477 548.51 252.688 543.138 265.93 537.351C267.31 536.748 268.711 536.14 270.134 535.524C296.021 524.304 328.892 510.058 367.427 463.161C403.378 419.408 416.067 381.253 427.05 348.228C428.483 343.919 429.887 339.697 431.31 335.561C437.473 317.646 443.983 301.371 454.72 286.592C465.451 271.821 480.423 258.52 503.543 246.593C593.545 200.165 661.716 225.604 750.561 258.756C753.028 259.677 755.512 260.604 758.013 261.536Z" stroke="#FFDF70"/>
<path d="M736.922 330.494C753.243 344.239 761.07 358.883 764.498 374.279C767.936 389.723 766.961 405.964 765.58 422.952C765.463 424.387 765.343 425.827 765.224 427.271C762.507 459.97 759.584 495.164 785.441 531.205C811.728 567.845 847.594 577.429 880.354 586.183C881.232 586.417 882.108 586.651 882.981 586.885C916.514 595.868 946.251 604.686 959.849 641.213C970.096 668.737 986.11 685.705 999.128 699.498C1003.73 704.372 1007.95 708.849 1011.42 713.255C1018.07 721.714 1021.96 729.895 1020.75 740.222C1019.54 750.628 1013.13 763.397 998.671 780.939C969.771 815.998 921.381 855.856 870.4 884.859C844.915 899.357 818.812 911.126 794.202 918.228C769.582 925.333 746.528 927.747 727.103 923.616C707.607 919.471 694.197 912.381 683.56 903.557C673.069 894.855 665.246 884.446 656.911 873.356L656.501 872.811C639.51 850.206 620.414 825.192 572.844 807.629C525.307 790.079 488.812 794.286 455.795 798.273L454.977 798.372C422.298 802.321 393.111 805.847 359.594 787.933C325.673 769.802 294.77 738.423 274.228 702.959C253.68 667.483 243.576 628.055 251.034 593.822C254.736 576.829 263.257 566.898 274.969 560.274C286.763 553.604 301.8 550.277 318.601 546.612L319.124 546.498C352.533 539.212 392.363 530.525 424.908 491.045C454.898 454.665 463.933 413.796 472.121 376.756C472.849 373.463 473.571 370.2 474.299 366.973C483.244 327.368 493.284 293.324 529.981 274.511C566.86 255.605 602.096 255.741 636.349 267.509C670.648 279.293 703.968 302.744 736.922 330.494Z" stroke="#FFDF70" stroke-width="2"/>
<path d="M640.619 294.096C658.815 300.814 672.399 315.85 683.232 335.69C694.065 355.529 702.116 380.113 709.273 405.836C712.265 416.588 715.103 427.548 717.923 438.439C721.841 453.571 725.725 468.57 729.939 482.691C737.188 506.986 745.446 528.802 756.624 544.442C778.919 575.635 799.715 592.526 822.012 604.221C837.694 612.445 854.131 618.101 872.314 624.357C879.94 626.981 887.873 629.711 896.187 632.78C924.217 643.129 949.036 669.676 961.01 700.744C972.979 731.8 972.086 767.287 948.835 795.562C925.574 823.849 884.328 835.235 839.458 841.826C822.607 844.301 805.274 846.097 788.218 847.865C782.58 848.449 776.972 849.03 771.422 849.632C749.093 852.051 727.7 854.8 709.091 859.412C699.862 861.699 692.413 861.727 686.29 860.012C680.173 858.298 675.338 854.832 671.352 850.058C663.352 840.478 658.8 825.678 654.246 809.32C653.824 807.806 653.403 806.279 652.979 804.743C648.833 789.72 644.427 773.758 637.167 759.765C629.155 744.321 617.649 731.235 599.144 724.403C580.644 717.573 562.655 719.766 545.423 725.878C530.236 731.265 515.596 739.713 501.687 747.738C499.83 748.81 497.985 749.875 496.154 750.923C480.578 759.843 466.007 767.598 452.575 769.276C445.875 770.112 439.475 769.434 433.379 766.638C427.282 763.841 421.453 758.908 415.928 751.178C395.197 722.171 366.163 717.381 341.291 713.277C339.298 712.949 337.331 712.624 335.397 712.292C322.329 710.047 310.837 707.462 302.685 700.913C294.576 694.401 289.69 683.891 290.04 665.576C290.389 647.328 298.7 632.214 311.76 618.898C324.828 605.574 342.624 594.078 361.883 583.082C369.831 578.544 378.037 574.087 386.256 569.622C397.921 563.286 409.613 556.934 420.634 550.317C439.438 539.027 456.397 526.903 468.15 512.611C487.378 489.229 493.054 464.728 498.136 442.794C499.26 437.94 500.356 433.211 501.562 428.649C504.897 416.041 509.073 404.704 517.008 395.371C524.933 386.048 536.649 378.681 555.145 374.098C573.842 369.464 584.021 360.388 589.881 349.777C595.499 339.604 597.122 328.055 598.56 317.826C598.617 317.422 598.674 317.02 598.73 316.62C599.475 311.343 600.208 306.466 601.457 302.312C602.705 298.16 604.452 294.788 607.186 292.482C612.63 287.889 622.266 287.32 640.619 294.096Z" stroke="#FFDF70"/>
</g>
</svg>