<svg width="719" height="1222" viewBox="0 0 719 1222" fill="none" xmlns="http://www.w3.org/2000/svg">
<g opacity="0.2">
<path d="M184.016 175.934C219.654 189.091 236.598 207.527 243.517 229.555C250.469 251.689 247.365 277.622 242.441 305.942C241.61 310.72 240.728 315.563 239.835 320.463C230.177 373.481 219.295 433.218 259.384 489.155C299.913 545.706 362.203 556.044 416.738 565.095C421.121 565.822 425.454 566.541 429.722 567.275C458.498 572.226 484.217 577.837 502.599 591.049C520.873 604.184 532.02 624.936 531.37 660.554C530.059 732.305 526.922 774.725 512.778 813.036C498.633 851.347 473.453 885.628 427.824 941.018C382.197 996.404 353.244 1027.84 317.633 1049.92C282.017 1072 239.676 1084.77 167.158 1102.64C131.024 1111.55 106.258 1110.21 87.1764 1102.5C68.0825 1094.78 54.5253 1080.63 40.9072 1063.57C37.4177 1059.2 33.9278 1054.64 30.3432 1049.95C5.95951 1018.09 -22.8026 980.504 -85.5847 957.325C-146.418 934.866 -197.705 941.252 -243.003 946.893C-251.296 947.926 -259.388 948.933 -267.301 949.735C-292.897 952.326 -316.588 952.762 -339.276 945.053C-361.937 937.354 -383.706 921.49 -405.363 891.273C-448.871 830.566 -472.755 793.345 -485.476 753.415C-498.194 713.491 -499.775 670.784 -498.464 599.036C-497.811 563.264 -491.025 541.694 -479.957 527.647C-468.893 513.605 -453.425 506.918 -434.972 501.192C-430.2 499.711 -425.236 498.297 -420.109 496.837C-385.602 487.008 -343.754 475.088 -303.835 426.63C-266.333 381.105 -255.292 333.375 -245.411 290.653C-243.224 281.199 -241.094 271.991 -238.746 263.105C-232.259 238.551 -224.127 216.476 -208.657 198.314C-193.205 180.171 -170.35 165.841 -134.252 156.945C-61.7389 139.076 -18.0098 130.636 25.4833 133.23C68.9794 135.825 112.31 149.46 184.016 175.934Z" stroke="#FFDF70" stroke-width="2"/>
<path d="M155.013 261.536C178.157 270.156 191.647 275.564 199.172 280.334C202.926 282.714 205.141 284.902 206.339 287.203C207.533 289.493 207.751 291.956 207.383 294.96C207.059 297.603 206.289 300.616 205.358 304.256C205.225 304.777 205.089 305.31 204.95 305.857C203.844 310.215 202.596 315.392 201.66 321.7C199.788 334.322 199.173 351.448 203.421 375.638C207.429 398.459 204.542 414.565 202.028 428.598C201.893 429.349 201.76 430.095 201.628 430.835C199.04 445.416 197.287 458.014 205.046 473.888C212.783 489.716 229.954 508.758 265.011 536.376C300.08 564.003 353.101 600.252 432.61 650.486C472.353 675.597 501.979 696.566 523.259 714.21C544.547 731.86 557.447 746.153 563.782 757.903C570.102 769.626 569.859 778.751 564.975 786.189C560.052 793.687 550.351 799.58 537.493 804.632C524.651 809.677 508.754 813.849 491.539 817.959C486.382 819.191 481.107 820.417 475.762 821.659C463.278 824.56 450.414 827.549 437.789 830.903C419.755 835.694 402.177 841.235 386.835 848.344C371.496 855.452 358.36 864.14 349.239 875.241C343.884 881.759 338.734 888.087 333.749 894.214C304.987 929.562 281.675 958.212 255.732 977.786C225.342 1000.72 191.342 1011.18 140.711 1005.21C90.2378 999.246 70.307 965.599 48.6231 927.918L47.8398 926.556C26.3826 889.257 2.87199 848.389 -53.9095 827.426C-110.834 806.409 -155.574 822.172 -196.324 836.528L-197.5 836.943C-238.59 851.415 -275.602 864.038 -317.363 836.087C-401.095 780.045 -410.323 688.36 -391.422 601.894C-386.705 580.316 -379.698 567.082 -370.615 557.801C-361.523 548.51 -350.312 543.138 -337.07 537.351C-335.69 536.748 -334.289 536.14 -332.866 535.524C-306.979 524.304 -274.108 510.058 -235.573 463.161C-199.622 419.408 -186.933 381.253 -175.95 348.228C-174.517 343.919 -173.113 339.697 -171.69 335.561C-165.527 317.646 -159.017 301.371 -148.28 286.592C-137.549 271.821 -122.577 258.52 -99.4567 246.593C-9.45516 200.165 58.7163 225.604 147.561 258.756C150.028 259.677 152.512 260.604 155.013 261.536Z" stroke="#FFDF70"/>
<path d="M133.922 330.494C150.243 344.239 158.07 358.883 161.498 374.279C164.936 389.723 163.961 405.964 162.58 422.952C162.463 424.387 162.343 425.827 162.223 427.271C159.507 459.97 156.584 495.164 182.441 531.205C208.728 567.845 244.594 577.429 277.354 586.183C278.232 586.417 279.108 586.651 279.981 586.885C313.514 595.868 343.251 604.686 356.849 641.213C367.096 668.737 383.11 685.705 396.128 699.498C400.728 704.372 404.954 708.849 408.419 713.255C415.07 721.714 418.957 729.895 417.751 740.222C416.536 750.628 410.132 763.397 395.671 780.939C366.771 815.998 318.38 855.856 267.4 884.859C241.915 899.357 215.812 911.126 191.202 918.228C166.582 925.333 143.528 927.747 124.103 923.616C104.607 919.471 91.1966 912.381 80.5596 903.557C70.0694 894.855 62.246 884.446 53.9113 873.356L53.5012 872.811C36.5103 850.206 17.4135 825.192 -30.1565 807.629C-77.6932 790.079 -114.188 794.286 -147.205 798.273L-148.023 798.372C-180.702 802.321 -209.889 805.847 -243.406 787.933C-277.327 769.802 -308.23 738.423 -328.772 702.959C-349.32 667.483 -359.424 628.055 -351.966 593.822C-348.264 576.829 -339.743 566.898 -328.031 560.274C-316.237 553.604 -301.2 550.277 -284.399 546.612L-283.876 546.498C-250.467 539.212 -210.637 530.525 -178.092 491.045C-148.102 454.665 -139.067 413.796 -130.879 376.756C-130.151 373.463 -129.43 370.2 -128.701 366.973C-119.756 327.368 -109.716 293.324 -73.0194 274.511C-36.14 255.605 -0.904482 255.741 33.3488 267.509C67.6477 279.293 100.968 302.744 133.922 330.494Z" stroke="#FFDF70" stroke-width="2"/>
<path d="M37.6191 294.096C55.8152 300.814 69.3991 315.85 80.2321 335.69C91.0652 355.529 99.1159 380.113 106.274 405.836C109.265 416.588 112.103 427.548 114.923 438.439C118.841 453.571 122.725 468.57 126.939 482.691C134.188 506.986 142.447 528.802 153.624 544.442C175.919 575.635 196.715 592.526 219.012 604.221C234.695 612.445 251.131 618.101 269.314 624.357C276.94 626.981 284.873 629.711 293.187 632.78C321.217 643.129 346.036 669.676 358.01 700.744C369.98 731.8 369.086 767.287 345.835 795.562C322.574 823.849 281.328 835.235 236.458 841.826C219.607 844.301 202.274 846.097 185.218 847.865C179.58 848.449 173.972 849.03 168.422 849.632C146.093 852.051 124.7 854.8 106.091 859.412C96.8622 861.699 89.4133 861.727 83.29 860.012C77.1729 858.298 72.3383 854.832 68.3521 850.058C60.3523 840.478 55.8003 825.678 51.2459 809.32C50.8244 807.806 50.4029 806.279 49.9788 804.743C45.8326 789.72 41.4267 773.758 34.1673 759.765C26.1555 744.321 14.6486 731.235 -3.8559 724.403C-22.3563 717.573 -40.3448 719.766 -57.5765 725.878C-72.7643 731.265 -87.4044 739.713 -101.313 747.738C-103.17 748.81 -105.015 749.875 -106.846 750.923C-122.422 759.843 -136.993 767.598 -150.425 769.276C-157.125 770.112 -163.525 769.434 -169.621 766.638C-175.718 763.841 -181.547 758.908 -187.072 751.178C-207.803 722.171 -236.836 717.381 -261.709 713.277C-263.702 712.949 -265.669 712.624 -267.603 712.292C-280.671 710.047 -292.163 707.462 -300.315 700.913C-308.424 694.401 -313.31 683.891 -312.96 665.576C-312.61 647.328 -304.299 632.214 -291.24 618.898C-278.172 605.574 -260.375 594.078 -241.117 583.082C-233.169 578.544 -224.963 574.087 -216.743 569.622C-205.079 563.286 -193.387 556.934 -182.366 550.317C-163.562 539.027 -146.603 526.903 -134.85 512.611C-115.622 489.229 -109.946 464.728 -104.864 442.794C-103.74 437.94 -102.644 433.211 -101.437 428.649C-98.1031 416.041 -93.9266 404.704 -85.9924 395.371C-78.0665 386.048 -66.3508 378.681 -47.8554 374.098C-29.1578 369.464 -18.9788 360.388 -13.1192 349.777C-7.50122 339.604 -5.87765 328.055 -4.43976 317.826C-4.38293 317.422 -4.32639 317.02 -4.2699 316.62C-3.52467 311.343 -2.79148 306.466 -1.54296 302.312C-0.29503 298.16 1.45201 294.788 4.18587 292.482C9.63043 287.889 19.2658 287.32 37.6191 294.096Z" stroke="#FFDF70"/>
</g>
</svg>