<svg width="1168" height="372" viewBox="0 0 1168 372" fill="none" xmlns="http://www.w3.org/2000/svg">
<path d="M-11 -7H1177V380H-11V-7Z" fill="#2B2B2B"/>
<path opacity="0.6" fill-rule="evenodd" clip-rule="evenodd" d="M1303 39L1239.23 75C1175.45 111 1055.87 183 928.324 233C800.775 283 681.197 312 553.648 312C426.099 312 298.549 283 234.775 269L171 255V341H234.775C298.549 341 426.099 341 553.648 341C681.197 341 800.775 341 928.324 341C1055.87 341 1175.45 341 1239.23 341H1303V39Z" fill="#444444"/>
<path opacity="0.6" fill-rule="evenodd" clip-rule="evenodd" d="M1303 99L1223 135C1143 171 983 243 823 293C663 343 503 372 343 372C183 372 23 343 -57 329L-137 315V371H-57C23 371 183 371 343 371C503 371 663 371 823 371C983 371 1143 371 1223 371H1303V99Z" fill="#444444"/>
<path fill-rule="evenodd" clip-rule="evenodd" d="M-137 69L-57 105C23 141 183 213 343 263C503 313 663 342 823 342C983 342 1143 313 1223 299L1303 285V371H1223C1143 371 983 371 823 371C663 371 503 371 343 371C183 371 23 371 -57 371H-137V69Z" fill="#313131"/>
</svg>